<svg width="1240" height="180" viewBox="0 0 1240 180" fill="none" xmlns="http://www.w3.org/2000/svg">
<path d="M12.1273 25.7806C4.04242 25.7527 0.22303 23.2436 0.418182 17.1661H7.36C7.44364 18.7552 8.78182 19.7309 12.1273 19.7588C15.0824 19.7867 16.4485 18.9503 16.4485 17.863C16.4485 17.1103 16.0303 16.3297 13.7442 15.9952L10.7333 15.5212C6.30061 14.7964 0.975758 14.2667 0.975758 8.27273C0.975758 3.64485 4.73939 0.80121 12.183 0.80121C18.9018 0.80121 23.5855 2.66909 23.4461 9.36H16.56C16.2812 7.79879 14.9709 6.82303 12.0158 6.82303C9.45091 6.82303 8.39152 7.60363 8.39152 8.66303C8.39152 9.33212 8.8097 10.1406 10.5939 10.4194L13.0752 10.8376C17.7309 11.6182 24.1152 11.7576 24.1152 18.1697C24.1152 23.2715 20.1564 25.8085 12.1273 25.7806ZM42.3875 1.58182H50.1099V25H42.3875V16.5248H33.299V25H25.5766V1.58182H33.299V10.057H42.3875V1.58182ZM64.9245 25.7806C56.8675 25.7806 51.6542 20.7903 51.6542 13.2909C51.6542 5.79151 56.8675 0.80121 64.9245 0.80121C72.9814 0.80121 78.1948 5.79151 78.1948 13.2909C78.1948 20.7903 72.9814 25.7806 64.9245 25.7806ZM64.9245 19.1176C67.9911 19.1176 70.5281 16.9988 70.5281 13.2909C70.5281 9.58303 67.9911 7.46424 64.9245 7.46424C61.8578 7.46424 59.3208 9.58303 59.3208 13.2909C59.3208 16.9988 61.8578 19.1176 64.9245 19.1176ZM79.7442 25V1.58182H93.0424C99.4267 1.58182 103.218 4.42545 103.218 10.7261C103.218 17.0267 99.4267 19.8703 93.0703 19.8703H87.4667V25H79.7442ZM87.4667 13.4582H92.3733C94.2412 13.4582 95.44 12.5382 95.44 10.7261C95.44 8.91394 94.2412 7.99394 92.4012 7.99394H87.4667V13.4582ZM107.082 25.4461C104.991 25.4461 103.234 23.7176 103.234 21.6545C103.234 19.5915 104.991 17.863 107.082 17.863C109.172 17.863 110.929 19.5915 110.929 21.6545C110.929 23.7176 109.172 25.4461 107.082 25.4461ZM125.613 25.7806C117.723 25.7806 112.454 20.7903 112.454 13.2909C112.454 5.79151 117.723 0.80121 125.613 0.80121C131.328 0.80121 137.182 3.3103 137.963 11.2279H130.603C129.962 8.66303 128.15 7.46424 125.613 7.46424C122.546 7.46424 120.121 9.7503 120.121 13.2909C120.121 16.8315 122.546 19.1176 125.613 19.1176C128.15 19.1176 129.962 17.9188 130.603 15.2982H137.963C137.182 23.2715 131.384 25.7806 125.613 25.7806ZM152.645 25.7806C144.588 25.7806 139.374 20.7903 139.374 13.2909C139.374 5.79151 144.588 0.80121 152.645 0.80121C160.702 0.80121 165.915 5.79151 165.915 13.2909C165.915 20.7903 160.702 25.7806 152.645 25.7806ZM152.645 19.1176C155.711 19.1176 158.248 16.9988 158.248 13.2909C158.248 9.58303 155.711 7.46424 152.645 7.46424C149.578 7.46424 147.041 9.58303 147.041 13.2909C147.041 16.9988 149.578 19.1176 152.645 19.1176Z" fill="black"/>
<path d="M3.192 66L0.21 55.976H1.26L3.29 62.864C3.43 63.354 3.556 63.858 3.682 64.516C3.85 63.788 3.99 63.354 4.144 62.864L6.328 55.976H7.378L9.562 62.864C9.716 63.368 9.856 63.872 10.01 64.516C10.164 63.746 10.29 63.256 10.402 62.878L12.474 55.976H13.496L10.486 66H9.534L6.846 57.488L4.158 66H3.192ZM16.7699 66.168C14.7819 66.168 13.4519 64.74 13.4519 62.612C13.4519 60.498 14.7679 59.042 16.6999 59.042C18.5339 59.042 19.7799 60.344 19.7799 62.262V62.738H14.3899C14.4599 64.39 15.3279 65.342 16.7839 65.342C17.8899 65.342 18.6039 64.866 18.8559 63.97H19.7799C19.4159 65.398 18.3659 66.168 16.7699 66.168ZM16.6999 59.868C15.4259 59.868 14.5859 60.708 14.4179 62.038H18.8139C18.8139 60.736 17.9739 59.868 16.6999 59.868ZM26.1732 65.986H25.2072V55.794H26.1732V60.4C26.6072 59.588 27.4332 59.042 28.5672 59.042C30.3452 59.042 31.1432 60.148 31.1432 61.856V66H30.1772V62.066C30.1772 60.484 29.4352 59.924 28.3852 59.924C26.9292 59.924 26.1732 61.002 26.1732 62.304V65.986ZM35.0145 66.168C33.5725 66.168 32.7185 65.356 32.7185 64.166C32.7185 62.92 33.6705 62.136 35.2525 62.01L37.4925 61.828V61.604C37.4925 60.274 36.6945 59.854 35.7005 59.854C34.5245 59.854 33.8245 60.386 33.8245 61.296H32.9425C32.9425 59.924 34.0625 59.042 35.7285 59.042C37.2965 59.042 38.4445 59.826 38.4445 61.618V66H37.6325L37.5065 64.81C37.0865 65.664 36.1625 66.168 35.0145 66.168ZM35.2385 65.384C36.6665 65.384 37.4925 64.39 37.4925 62.92V62.556L35.4905 62.71C34.2165 62.822 33.6985 63.382 33.6985 64.138C33.6985 64.964 34.3145 65.384 35.2385 65.384ZM41.9996 66L39.2276 59.224H40.2636L42.0136 63.592C42.1956 64.082 42.3776 64.544 42.5036 64.992C42.6296 64.53 42.8116 64.082 43.0076 63.592L44.7856 59.224H45.7796L42.9656 66H41.9996ZM49.4594 66.168C47.4714 66.168 46.1414 64.74 46.1414 62.612C46.1414 60.498 47.4574 59.042 49.3894 59.042C51.2234 59.042 52.4694 60.344 52.4694 62.262V62.738H47.0794C47.1494 64.39 48.0174 65.342 49.4734 65.342C50.5794 65.342 51.2934 64.866 51.5454 63.97H52.4694C52.1054 65.398 51.0554 66.168 49.4594 66.168ZM49.3894 59.868C48.1154 59.868 47.2754 60.708 47.1074 62.038H51.5034C51.5034 60.736 50.6634 59.868 49.3894 59.868ZM57.4207 62.626C57.4207 60.498 58.7227 59.042 60.6967 59.042C62.2647 59.042 63.4127 59.952 63.6787 61.352H62.7127C62.4607 60.414 61.6487 59.896 60.7107 59.896C59.3387 59.896 58.3727 60.946 58.3727 62.612C58.3727 64.222 59.2687 65.3 60.6407 65.3C61.6487 65.3 62.4607 64.74 62.7267 63.872H63.7067C63.3847 65.258 62.1807 66.168 60.6407 66.168C58.7227 66.168 57.4207 64.754 57.4207 62.626ZM66.1781 66H65.2121V55.794H66.1781V66ZM67.7566 62.612C67.7566 60.54 69.2126 59.042 71.2006 59.042C73.1886 59.042 74.6446 60.54 74.6446 62.612C74.6446 64.67 73.1886 66.168 71.2006 66.168C69.2126 66.168 67.7566 64.67 67.7566 62.612ZM68.7366 62.598C68.7366 64.194 69.7446 65.3 71.2006 65.3C72.6426 65.3 73.6646 64.194 73.6646 62.598C73.6646 61.03 72.6426 59.91 71.2006 59.91C69.7446 59.91 68.7366 61.03 68.7366 62.598ZM77.6753 66H76.7233V60.036H75.3653V59.224H76.7233V57.082H77.6753V59.224H79.0333V60.036H77.6753V66ZM81.2572 65.986H80.2912V55.794H81.2572V60.4C81.6912 59.588 82.5172 59.042 83.6512 59.042C85.4292 59.042 86.2272 60.148 86.2272 61.856V66H85.2612V62.066C85.2612 60.484 84.5192 59.924 83.4692 59.924C82.0132 59.924 81.2572 61.002 81.2572 62.304V65.986ZM90.9945 66.168C89.0065 66.168 87.6765 64.74 87.6765 62.612C87.6765 60.498 88.9925 59.042 90.9245 59.042C92.7585 59.042 94.0045 60.344 94.0045 62.262V62.738H88.6145C88.6845 64.39 89.5525 65.342 91.0085 65.342C92.1145 65.342 92.8285 64.866 93.0805 63.97H94.0045C93.6405 65.398 92.5905 66.168 90.9945 66.168ZM90.9245 59.868C89.6505 59.868 88.8105 60.708 88.6425 62.038H93.0385C93.0385 60.736 92.1985 59.868 90.9245 59.868ZM94.975 64.096H95.899C95.899 64.88 96.487 65.37 97.439 65.37C98.489 65.37 99.105 64.922 99.105 64.194C99.105 63.634 98.825 63.312 98.027 63.116L96.865 62.822C95.689 62.528 95.115 61.912 95.115 60.988C95.115 59.798 96.109 59.042 97.565 59.042C98.993 59.042 99.917 59.826 99.959 61.086H99.021C98.993 60.302 98.447 59.84 97.537 59.84C96.585 59.84 96.053 60.246 96.053 60.974C96.053 61.492 96.417 61.856 97.159 62.038L98.321 62.332C99.497 62.626 100.029 63.172 100.029 64.152C100.029 65.37 98.993 66.168 97.453 66.168C95.927 66.168 94.975 65.356 94.975 64.096ZM107.056 66H106.104V60.036H104.746V59.224H106.104V57.082H107.056V59.224H108.414V60.036H107.056V66ZM110.638 65.986H109.672V55.794H110.638V60.4C111.072 59.588 111.898 59.042 113.032 59.042C114.81 59.042 115.608 60.148 115.608 61.856V66H114.642V62.066C114.642 60.484 113.9 59.924 112.85 59.924C111.394 59.924 110.638 61.002 110.638 62.304V65.986ZM119.479 66.168C118.037 66.168 117.183 65.356 117.183 64.166C117.183 62.92 118.135 62.136 119.717 62.01L121.957 61.828V61.604C121.957 60.274 121.159 59.854 120.165 59.854C118.989 59.854 118.289 60.386 118.289 61.296H117.407C117.407 59.924 118.527 59.042 120.193 59.042C121.761 59.042 122.909 59.826 122.909 61.618V66H122.097L121.971 64.81C121.551 65.664 120.627 66.168 119.479 66.168ZM119.703 65.384C121.131 65.384 121.957 64.39 121.957 62.92V62.556L119.955 62.71C118.681 62.822 118.163 63.382 118.163 64.138C118.163 64.964 118.779 65.384 119.703 65.384ZM126.279 66H125.327V60.036H123.969V59.224H125.327V57.082H126.279V59.224H127.637V60.036H126.279V66ZM132.204 64.096H133.128C133.128 64.88 133.716 65.37 134.668 65.37C135.718 65.37 136.334 64.922 136.334 64.194C136.334 63.634 136.054 63.312 135.256 63.116L134.094 62.822C132.918 62.528 132.344 61.912 132.344 60.988C132.344 59.798 133.338 59.042 134.794 59.042C136.222 59.042 137.146 59.826 137.188 61.086H136.25C136.222 60.302 135.676 59.84 134.766 59.84C133.814 59.84 133.282 60.246 133.282 60.974C133.282 61.492 133.646 61.856 134.388 62.038L135.55 62.332C136.726 62.626 137.258 63.172 137.258 64.152C137.258 65.37 136.222 66.168 134.682 66.168C133.156 66.168 132.204 65.356 132.204 64.096ZM143.608 59.224H144.574V66H143.734L143.608 64.852C143.23 65.636 142.292 66.168 141.228 66.168C139.632 66.168 138.764 65.076 138.764 63.424V59.21H139.744V63.116C139.744 64.726 140.458 65.3 141.536 65.3C142.838 65.3 143.608 64.432 143.608 62.822V59.224ZM147.062 57.362C146.67 57.362 146.348 57.04 146.348 56.648C146.348 56.256 146.67 55.92 147.062 55.92C147.454 55.92 147.79 56.256 147.79 56.648C147.79 57.04 147.454 57.362 147.062 57.362ZM146.586 66V59.224H147.552V66H146.586ZM151.121 66H150.169V60.036H148.811V59.224H150.169V57.082H151.121V59.224H152.479V60.036H151.121V66ZM153.163 64.096H154.087C154.087 64.88 154.675 65.37 155.627 65.37C156.677 65.37 157.293 64.922 157.293 64.194C157.293 63.634 157.013 63.312 156.215 63.116L155.053 62.822C153.877 62.528 153.303 61.912 153.303 60.988C153.303 59.798 154.297 59.042 155.753 59.042C157.181 59.042 158.105 59.826 158.147 61.086H157.209C157.181 60.302 156.635 59.84 155.725 59.84C154.773 59.84 154.241 60.246 154.241 60.974C154.241 61.492 154.605 61.856 155.347 62.038L156.509 62.332C157.685 62.626 158.217 63.172 158.217 64.152C158.217 65.37 157.181 66.168 155.641 66.168C154.115 66.168 153.163 65.356 153.163 64.096ZM163.004 68.954V68.156H163.746C164.334 68.156 164.922 68.114 165.258 67.204L165.552 66.406L162.808 59.224H163.83L166.014 65.132L168.156 59.224H169.15L166.042 67.554C165.65 68.618 164.992 69.052 164.026 69.052C163.62 69.052 163.312 69.024 163.004 68.954ZM169.571 62.612C169.571 60.54 171.027 59.042 173.015 59.042C175.003 59.042 176.459 60.54 176.459 62.612C176.459 64.67 175.003 66.168 173.015 66.168C171.027 66.168 169.571 64.67 169.571 62.612ZM170.551 62.598C170.551 64.194 171.559 65.3 173.015 65.3C174.457 65.3 175.479 64.194 175.479 62.598C175.479 61.03 174.457 59.91 173.015 59.91C171.559 59.91 170.551 61.03 170.551 62.598ZM182.6 59.224H183.566V66H182.726L182.6 64.852C182.222 65.636 181.284 66.168 180.22 66.168C178.624 66.168 177.756 65.076 177.756 63.424V59.21H178.736V63.116C178.736 64.726 179.45 65.3 180.528 65.3C181.83 65.3 182.6 64.432 182.6 62.822V59.224ZM189.12 59.14V60.008H188.588C187.342 60.008 186.544 60.848 186.544 62.136V66H185.578V59.224H186.488L186.558 60.274C186.824 59.546 187.538 59.07 188.49 59.07C188.7 59.07 188.882 59.084 189.12 59.14ZM193.713 64.096H194.637C194.637 64.88 195.225 65.37 196.177 65.37C197.227 65.37 197.843 64.922 197.843 64.194C197.843 63.634 197.563 63.312 196.765 63.116L195.603 62.822C194.427 62.528 193.853 61.912 193.853 60.988C193.853 59.798 194.847 59.042 196.303 59.042C197.731 59.042 198.655 59.826 198.697 61.086H197.759C197.731 60.302 197.185 59.84 196.275 59.84C195.323 59.84 194.791 60.246 194.791 60.974C194.791 61.492 195.155 61.856 195.897 62.038L197.059 62.332C198.235 62.626 198.767 63.172 198.767 64.152C198.767 65.37 197.731 66.168 196.191 66.168C194.665 66.168 193.713 65.356 193.713 64.096ZM201.912 66H200.96V60.036H199.602V59.224H200.96V57.082H201.912V59.224H203.27V60.036H201.912V66ZM203.842 68.954V68.156H204.584C205.172 68.156 205.76 68.114 206.096 67.204L206.39 66.406L203.646 59.224H204.668L206.852 65.132L208.994 59.224H209.988L206.88 67.554C206.488 68.618 205.83 69.052 204.864 69.052C204.458 69.052 204.15 69.024 203.842 68.954ZM212.125 66H211.159V55.794H212.125V66ZM217.022 66.168C215.034 66.168 213.704 64.74 213.704 62.612C213.704 60.498 215.02 59.042 216.952 59.042C218.786 59.042 220.032 60.344 220.032 62.262V62.738H214.642C214.712 64.39 215.58 65.342 217.036 65.342C218.142 65.342 218.856 64.866 219.108 63.97H220.032C219.668 65.398 218.618 66.168 217.022 66.168ZM216.952 59.868C215.678 59.868 214.838 60.708 214.67 62.038H219.066C219.066 60.736 218.226 59.868 216.952 59.868ZM227.405 66.168C225.963 66.168 225.109 65.356 225.109 64.166C225.109 62.92 226.061 62.136 227.643 62.01L229.883 61.828V61.604C229.883 60.274 229.085 59.854 228.091 59.854C226.915 59.854 226.215 60.386 226.215 61.296H225.333C225.333 59.924 226.453 59.042 228.119 59.042C229.687 59.042 230.835 59.826 230.835 61.618V66H230.023L229.897 64.81C229.477 65.664 228.553 66.168 227.405 66.168ZM227.629 65.384C229.057 65.384 229.883 64.39 229.883 62.92V62.556L227.881 62.71C226.607 62.822 226.089 63.382 226.089 64.138C226.089 64.964 226.705 65.384 227.629 65.384ZM233.74 66H232.774V59.224H233.614L233.754 60.4C234.202 59.532 235.098 59.042 236.078 59.042C237.94 59.042 238.71 60.148 238.71 61.856V66H237.744V62.066C237.744 60.484 237.03 59.924 235.91 59.924C234.524 59.924 233.74 60.932 233.74 62.458V66ZM243.295 66.168C241.321 66.168 240.159 64.656 240.159 62.626C240.159 60.582 241.321 59.042 243.337 59.042C244.457 59.042 245.353 59.532 245.829 60.512V55.794H246.795V66H245.955L245.857 64.614C245.381 65.664 244.429 66.168 243.295 66.168ZM243.463 65.286C244.947 65.286 245.815 64.166 245.815 62.598C245.815 61.044 244.947 59.91 243.463 59.91C241.993 59.91 241.139 61.044 241.139 62.598C241.139 64.166 241.993 65.286 243.463 65.286ZM2.436 88L0.196 81.224H1.19L2.52 85.312C2.674 85.76 2.8 86.222 2.94 86.768C3.052 86.222 3.276 85.536 3.346 85.312L4.69 81.224H5.684L7.014 85.312C7.14 85.676 7.308 86.264 7.434 86.768C7.574 86.208 7.602 86.04 7.84 85.312L9.184 81.224H10.192L7.896 88H6.958L5.558 83.744C5.39 83.24 5.278 82.82 5.194 82.414C5.096 82.778 4.984 83.184 4.802 83.744L3.402 88H2.436ZM12.3646 87.986H11.3986V77.794H12.3646V82.4C12.7986 81.588 13.6246 81.042 14.7586 81.042C16.5366 81.042 17.3346 82.148 17.3346 83.856V88H16.3686V84.066C16.3686 82.484 15.6266 81.924 14.5766 81.924C13.1206 81.924 12.3646 83.002 12.3646 84.304V87.986ZM19.736 79.362C19.344 79.362 19.022 79.04 19.022 78.648C19.022 78.256 19.344 77.92 19.736 77.92C20.128 77.92 20.464 78.256 20.464 78.648C20.464 79.04 20.128 79.362 19.736 79.362ZM19.26 88V81.224H20.226V88H19.26ZM21.7644 84.626C21.7644 82.498 23.0664 81.042 25.0404 81.042C26.6084 81.042 27.7564 81.952 28.0224 83.352H27.0564C26.8044 82.414 25.9924 81.896 25.0544 81.896C23.6824 81.896 22.7164 82.946 22.7164 84.612C22.7164 86.222 23.6124 87.3 24.9844 87.3C25.9924 87.3 26.8044 86.74 27.0704 85.872H28.0504C27.7284 87.258 26.5244 88.168 24.9844 88.168C23.0664 88.168 21.7644 86.754 21.7644 84.626ZM30.4799 87.986H29.5139V77.794H30.4799V82.4C30.9139 81.588 31.7399 81.042 32.8739 81.042C34.6519 81.042 35.4499 82.148 35.4499 83.856V88H34.4839V84.066C34.4839 82.484 33.7419 81.924 32.6919 81.924C31.2359 81.924 30.4799 83.002 30.4799 84.304V87.986ZM40.572 90.954V90.156H41.314C41.902 90.156 42.49 90.114 42.826 89.204L43.12 88.406L40.376 81.224H41.398L43.582 87.132L45.724 81.224H46.718L43.61 89.554C43.218 90.618 42.56 91.052 41.594 91.052C41.188 91.052 40.88 91.024 40.572 90.954ZM47.1394 84.612C47.1394 82.54 48.5954 81.042 50.5834 81.042C52.5714 81.042 54.0274 82.54 54.0274 84.612C54.0274 86.67 52.5714 88.168 50.5834 88.168C48.5954 88.168 47.1394 86.67 47.1394 84.612ZM48.1194 84.598C48.1194 86.194 49.1274 87.3 50.5834 87.3C52.0254 87.3 53.0474 86.194 53.0474 84.598C53.0474 83.03 52.0254 81.91 50.5834 81.91C49.1274 81.91 48.1194 83.03 48.1194 84.598ZM60.1684 81.224H61.1344V88H60.2944L60.1684 86.852C59.7904 87.636 58.8524 88.168 57.7884 88.168C56.1924 88.168 55.3244 87.076 55.3244 85.424V81.21H56.3044V85.116C56.3044 86.726 57.0184 87.3 58.0964 87.3C59.3984 87.3 60.1684 86.432 60.1684 84.822V81.224ZM64.2908 78.872C64.2908 79.754 63.6468 80.496 62.7788 80.622V80.104C63.2688 80.006 63.6328 79.656 63.6328 79.264C63.5488 79.32 63.4228 79.348 63.2548 79.348C62.8908 79.348 62.5688 79.082 62.5688 78.606C62.5688 78.13 62.9048 77.78 63.3948 77.78C63.8708 77.78 64.2908 78.186 64.2908 78.872ZM69.6965 81.14V82.008H69.1645C67.9185 82.008 67.1205 82.848 67.1205 84.136V88H66.1545V81.224H67.0645L67.1345 82.274C67.4005 81.546 68.1145 81.07 69.0665 81.07C69.2765 81.07 69.4585 81.084 69.6965 81.14ZM73.5629 88.168C71.5749 88.168 70.2449 86.74 70.2449 84.612C70.2449 82.498 71.5609 81.042 73.4929 81.042C75.3269 81.042 76.5729 82.344 76.5729 84.262V84.738H71.1829C71.2529 86.39 72.1209 87.342 73.5769 87.342C74.6829 87.342 75.3969 86.866 75.6489 85.97H76.5729C76.2089 87.398 75.1589 88.168 73.5629 88.168ZM73.4929 81.868C72.2189 81.868 71.3789 82.708 71.2109 84.038H75.6069C75.6069 82.736 74.7669 81.868 73.4929 81.868ZM82.0002 90.954V81.224H82.8402L82.9382 82.596C83.4142 81.546 84.3662 81.042 85.5002 81.042C87.4602 81.042 88.6362 82.54 88.6362 84.584C88.6362 86.628 87.5022 88.168 85.5002 88.168C84.3522 88.168 83.4422 87.678 82.9662 86.698V90.954H82.0002ZM82.9802 84.612C82.9802 86.166 83.8482 87.3 85.3322 87.3C86.8022 87.3 87.6562 86.166 87.6562 84.612C87.6562 83.044 86.8022 81.924 85.3322 81.924C83.8482 81.924 82.9802 83.044 82.9802 84.612ZM93.718 81.14V82.008H93.186C91.94 82.008 91.142 82.848 91.142 84.136V88H90.176V81.224H91.086L91.156 82.274C91.422 81.546 92.136 81.07 93.088 81.07C93.298 81.07 93.48 81.084 93.718 81.14ZM94.2664 84.612C94.2664 82.54 95.7224 81.042 97.7104 81.042C99.6984 81.042 101.154 82.54 101.154 84.612C101.154 86.67 99.6984 88.168 97.7104 88.168C95.7224 88.168 94.2664 86.67 94.2664 84.612ZM95.2464 84.598C95.2464 86.194 96.2544 87.3 97.7104 87.3C99.1524 87.3 100.174 86.194 100.174 84.598C100.174 83.03 99.1524 81.91 97.7104 81.91C96.2544 81.91 95.2464 83.03 95.2464 84.598ZM107.295 81.224H108.261V88H107.421L107.295 86.852C106.917 87.636 105.979 88.168 104.915 88.168C103.319 88.168 102.451 87.076 102.451 85.424V81.21H103.431V85.116C103.431 86.726 104.145 87.3 105.223 87.3C106.525 87.3 107.295 86.432 107.295 84.822V81.224ZM112.797 88.168C110.823 88.168 109.661 86.656 109.661 84.626C109.661 82.582 110.823 81.042 112.839 81.042C113.959 81.042 114.855 81.532 115.331 82.512V77.794H116.297V88H115.457L115.359 86.614C114.883 87.664 113.931 88.168 112.797 88.168ZM112.965 87.286C114.449 87.286 115.317 86.166 115.317 84.598C115.317 83.044 114.449 81.91 112.965 81.91C111.495 81.91 110.641 83.044 110.641 84.598C110.641 86.166 111.495 87.286 112.965 87.286ZM123.75 88H122.798V82.036H121.44V81.224H122.798V79.082H123.75V81.224H125.108V82.036H123.75V88ZM125.821 84.612C125.821 82.54 127.277 81.042 129.265 81.042C131.253 81.042 132.709 82.54 132.709 84.612C132.709 86.67 131.253 88.168 129.265 88.168C127.277 88.168 125.821 86.67 125.821 84.612ZM126.801 84.598C126.801 86.194 127.809 87.3 129.265 87.3C130.707 87.3 131.729 86.194 131.729 84.598C131.729 83.03 130.707 81.91 129.265 81.91C127.809 81.91 126.801 83.03 126.801 84.598ZM139.565 88L137.325 81.224H138.319L139.649 85.312C139.803 85.76 139.929 86.222 140.069 86.768C140.181 86.222 140.405 85.536 140.475 85.312L141.819 81.224H142.813L144.143 85.312C144.269 85.676 144.437 86.264 144.563 86.768C144.703 86.208 144.731 86.04 144.969 85.312L146.313 81.224H147.321L145.025 88H144.087L142.687 83.744C142.519 83.24 142.407 82.82 142.323 82.414C142.225 82.778 142.113 83.184 141.931 83.744L140.531 88H139.565ZM151.069 88.168C149.081 88.168 147.751 86.74 147.751 84.612C147.751 82.498 149.067 81.042 150.999 81.042C152.833 81.042 154.079 82.344 154.079 84.262V84.738H148.689C148.759 86.39 149.627 87.342 151.083 87.342C152.189 87.342 152.903 86.866 153.155 85.97H154.079C153.715 87.398 152.665 88.168 151.069 88.168ZM150.999 81.868C149.725 81.868 148.885 82.708 148.717 84.038H153.113C153.113 82.736 152.273 81.868 150.999 81.868ZM157.501 88.168C156.059 88.168 155.205 87.356 155.205 86.166C155.205 84.92 156.157 84.136 157.739 84.01L159.979 83.828V83.604C159.979 82.274 159.181 81.854 158.187 81.854C157.011 81.854 156.311 82.386 156.311 83.296H155.429C155.429 81.924 156.549 81.042 158.215 81.042C159.783 81.042 160.931 81.826 160.931 83.618V88H160.119L159.993 86.81C159.573 87.664 158.649 88.168 157.501 88.168ZM157.725 87.384C159.153 87.384 159.979 86.39 159.979 84.92V84.556L157.977 84.71C156.703 84.822 156.185 85.382 156.185 86.138C156.185 86.964 156.801 87.384 157.725 87.384ZM166.411 81.14V82.008H165.879C164.633 82.008 163.835 82.848 163.835 84.136V88H162.869V81.224H163.779L163.849 82.274C164.115 81.546 164.829 81.07 165.781 81.07C165.991 81.07 166.173 81.084 166.411 81.14ZM167.482 88.154C167.006 88.154 166.6 87.762 166.6 87.3C166.6 86.824 167.006 86.418 167.482 86.418C167.958 86.418 168.364 86.824 168.364 87.3C168.364 87.762 167.958 88.154 167.482 88.154ZM179.523 83.59H175.421V88H174.413V77.976H180.321V78.9H175.421V82.68H179.523V83.59ZM184.923 81.14V82.008H184.391C183.145 82.008 182.347 82.848 182.347 84.136V88H181.381V81.224H182.291L182.361 82.274C182.627 81.546 183.341 81.07 184.293 81.07C184.503 81.07 184.685 81.084 184.923 81.14ZM185.471 84.612C185.471 82.54 186.927 81.042 188.915 81.042C190.903 81.042 192.359 82.54 192.359 84.612C192.359 86.67 190.903 88.168 188.915 88.168C186.927 88.168 185.471 86.67 185.471 84.612ZM186.451 84.598C186.451 86.194 187.459 87.3 188.915 87.3C190.357 87.3 191.379 86.194 191.379 84.598C191.379 83.03 190.357 81.91 188.915 81.91C187.459 81.91 186.451 83.03 186.451 84.598ZM194.87 88H193.904V81.224H194.744L194.856 82.19C195.192 81.476 195.948 81.042 196.9 81.042C197.964 81.042 198.762 81.602 199.084 82.484C199.392 81.602 200.218 81.042 201.31 81.042C202.78 81.042 203.746 81.994 203.746 83.562V88H202.808V83.758C202.808 82.596 202.164 81.91 201.128 81.91C199.994 81.91 199.322 82.764 199.322 83.814V88H198.37V83.744C198.37 82.596 197.712 81.924 196.69 81.924C195.556 81.924 194.87 82.764 194.87 83.8V88ZM2.436 110L0.196 103.224H1.19L2.52 107.312C2.674 107.76 2.8 108.222 2.94 108.768C3.052 108.222 3.276 107.536 3.346 107.312L4.69 103.224H5.684L7.014 107.312C7.14 107.676 7.308 108.264 7.434 108.768C7.574 108.208 7.602 108.04 7.84 107.312L9.184 103.224H10.192L7.896 110H6.958L5.558 105.744C5.39 105.24 5.278 104.82 5.194 104.414C5.096 104.778 4.984 105.184 4.802 105.744L3.402 110H2.436ZM10.6218 106.612C10.6218 104.54 12.0778 103.042 14.0658 103.042C16.0538 103.042 17.5098 104.54 17.5098 106.612C17.5098 108.67 16.0538 110.168 14.0658 110.168C12.0778 110.168 10.6218 108.67 10.6218 106.612ZM11.6018 106.598C11.6018 108.194 12.6098 109.3 14.0658 109.3C15.5078 109.3 16.5298 108.194 16.5298 106.598C16.5298 105.03 15.5078 103.91 14.0658 103.91C12.6098 103.91 11.6018 105.03 11.6018 106.598ZM20.0209 110H19.0549V103.224H19.8949L20.0069 104.19C20.3429 103.476 21.0989 103.042 22.0509 103.042C23.1149 103.042 23.9129 103.602 24.2349 104.484C24.5429 103.602 25.3689 103.042 26.4609 103.042C27.9309 103.042 28.8969 103.994 28.8969 105.562V110H27.9589V105.758C27.9589 104.596 27.3149 103.91 26.2789 103.91C25.1449 103.91 24.4729 104.764 24.4729 105.814V110H23.5209V105.744C23.5209 104.596 22.8629 103.924 21.8409 103.924C20.7069 103.924 20.0209 104.764 20.0209 105.8V110ZM33.682 110.168C31.694 110.168 30.364 108.74 30.364 106.612C30.364 104.498 31.68 103.042 33.612 103.042C35.446 103.042 36.692 104.344 36.692 106.262V106.738H31.302C31.372 108.39 32.24 109.342 33.696 109.342C34.802 109.342 35.516 108.866 35.768 107.97H36.692C36.328 109.398 35.278 110.168 33.682 110.168ZM33.612 103.868C32.338 103.868 31.498 104.708 31.33 106.038H35.726C35.726 104.736 34.886 103.868 33.612 103.868ZM39.2025 110H38.2365V103.224H39.0765L39.2165 104.4C39.6645 103.532 40.5605 103.042 41.5405 103.042C43.4025 103.042 44.1725 104.148 44.1725 105.856V110H43.2065V106.066C43.2065 104.484 42.4925 103.924 41.3725 103.924C39.9865 103.924 39.2025 104.932 39.2025 106.458V110ZM51.5347 110H50.5827V104.036H49.2247V103.224H50.5827V101.082H51.5347V103.224H52.8927V104.036H51.5347V110ZM53.6062 106.612C53.6062 104.54 55.0622 103.042 57.0502 103.042C59.0382 103.042 60.4942 104.54 60.4942 106.612C60.4942 108.67 59.0382 110.168 57.0502 110.168C55.0622 110.168 53.6062 108.67 53.6062 106.612ZM54.5862 106.598C54.5862 108.194 55.5942 109.3 57.0502 109.3C58.4922 109.3 59.5142 108.194 59.5142 106.598C59.5142 105.03 58.4922 103.91 57.0502 103.91C55.5942 103.91 54.5862 105.03 54.5862 106.598ZM66.8881 110H65.9221V103.224H66.7621L66.8741 104.19C67.2101 103.476 67.9661 103.042 68.9181 103.042C69.9821 103.042 70.7801 103.602 71.1021 104.484C71.4101 103.602 72.2361 103.042 73.3281 103.042C74.7981 103.042 75.7641 103.994 75.7641 105.562V110H74.8261V105.758C74.8261 104.596 74.1821 103.91 73.1461 103.91C72.0121 103.91 71.3401 104.764 71.3401 105.814V110H70.3881V105.744C70.3881 104.596 69.7301 103.924 68.7081 103.924C67.5741 103.924 66.8881 104.764 66.8881 105.8V110ZM80.5492 110.168C78.5612 110.168 77.2312 108.74 77.2312 106.612C77.2312 104.498 78.5472 103.042 80.4792 103.042C82.3132 103.042 83.5592 104.344 83.5592 106.262V106.738H78.1692C78.2392 108.39 79.1072 109.342 80.5632 109.342C81.6692 109.342 82.3832 108.866 82.6352 107.97H83.5592C83.1952 109.398 82.1452 110.168 80.5492 110.168ZM80.4792 103.868C79.2052 103.868 78.3652 104.708 78.1972 106.038H82.5932C82.5932 104.736 81.7532 103.868 80.4792 103.868ZM86.0697 110H85.1037V103.224H85.9437L86.0837 104.4C86.5317 103.532 87.4277 103.042 88.4077 103.042C90.2697 103.042 91.0397 104.148 91.0397 105.856V110H90.0737V106.066C90.0737 104.484 89.3597 103.924 88.2397 103.924C86.8537 103.924 86.0697 104.932 86.0697 106.458V110ZM93.791 110.154C93.315 110.154 92.909 109.762 92.909 109.3C92.909 108.824 93.315 108.418 93.791 108.418C94.267 108.418 94.673 108.824 94.673 109.3C94.673 109.762 94.267 110.154 93.791 110.154Z" fill="black" fill-opacity="0.6"/>
<circle cx="14" cy="165" r="14" fill="white"/>
<circle cx="14" cy="165" r="13.5" stroke="black" stroke-opacity="0.2"/>
<path d="M20.2071 161.983C19.7881 162.169 19.3458 162.286 18.8802 162.356C19.3458 162.076 19.7183 161.634 19.8812 161.099C19.4389 161.355 18.9501 161.541 18.4146 161.657C17.9956 161.215 17.3904 160.936 16.7386 160.936C15.4815 160.936 14.4572 161.96 14.4572 163.217C14.4572 163.403 14.4805 163.566 14.5271 163.729C12.6415 163.636 10.9421 162.728 9.80141 161.331C9.61518 161.68 9.49878 162.053 9.49878 162.472C9.49878 163.263 9.89453 163.962 10.5231 164.381C10.1506 164.358 9.80141 164.264 9.4755 164.101V164.125C9.4755 165.242 10.267 166.173 11.3145 166.383C11.1283 166.429 10.9188 166.453 10.7093 166.453C10.5696 166.453 10.4067 166.429 10.267 166.406C10.5696 167.314 11.4077 167.989 12.4087 167.989C11.6172 168.594 10.6395 168.967 9.56862 168.967C9.38239 168.967 9.19616 168.967 9.0332 168.944C10.0575 169.595 11.2447 169.968 12.5483 169.968C16.7618 169.968 19.0665 166.476 19.0665 163.45C19.0665 163.357 19.0665 163.24 19.0665 163.147C19.5088 162.844 19.9045 162.449 20.2071 161.983Z" fill="black"/>
<circle cx="54" cy="165" r="14" fill="black"/>
<path d="M52.7087 171.304V165.75H50.8398V163.586H52.7087V161.99C52.7087 160.138 53.84 159.129 55.4924 159.129C56.2839 159.129 56.9642 159.188 57.1624 159.214V161.15L56.0164 161.15C55.1178 161.15 54.9438 161.577 54.9438 162.204V163.586H57.087L56.8079 165.75H54.9438V171.304H52.7087Z" fill="white"/>
<circle cx="94" cy="165" r="14" fill="white"/>
<circle cx="94" cy="165" r="13.5" stroke="black" stroke-opacity="0.2"/>
<path d="M94.0008 159.447C95.8095 159.447 96.0237 159.454 96.7382 159.487C97.1678 159.492 97.5933 159.571 97.9962 159.72C98.2884 159.832 98.5538 160.005 98.7753 160.227C98.9967 160.448 99.1694 160.713 99.282 161.006C99.4311 161.409 99.51 161.834 99.5153 162.264C99.5475 162.978 99.5546 163.192 99.5546 165.001C99.5546 166.81 99.5479 167.024 99.5153 167.738C99.51 168.168 99.4311 168.594 99.282 168.997C99.1694 169.289 98.9967 169.554 98.7753 169.776C98.5538 169.997 98.2884 170.17 97.9962 170.282C97.5933 170.431 97.1678 170.51 96.7382 170.516C96.024 170.548 95.8098 170.555 94.0008 170.555C92.1917 170.555 91.9775 170.548 91.2633 170.516C90.8337 170.51 90.4082 170.431 90.0053 170.282C89.7131 170.17 89.4477 169.997 89.2262 169.776C89.0048 169.554 88.8322 169.289 88.7195 168.997C88.5704 168.594 88.4915 168.168 88.4862 167.738C88.454 167.024 88.4469 166.81 88.4469 165.001C88.4469 163.192 88.4537 162.978 88.4862 162.264C88.4915 161.834 88.5704 161.409 88.7195 161.006C88.8322 160.713 89.0048 160.448 89.2262 160.227C89.4477 160.005 89.7131 159.832 90.0053 159.72C90.4082 159.571 90.8337 159.492 91.2633 159.487C91.9779 159.454 92.192 159.447 94.0008 159.447ZM94.0008 158.227C92.162 158.227 91.9304 158.234 91.2079 158.267C90.6456 158.278 90.0893 158.385 89.5627 158.582C89.1109 158.752 88.7017 159.019 88.3637 159.364C88.0187 159.702 87.7517 160.111 87.5814 160.563C87.3842 161.09 87.2777 161.646 87.2666 162.208C87.2343 162.93 87.2266 163.162 87.2266 165.001C87.2266 166.839 87.2343 167.071 87.2672 167.794C87.2784 168.356 87.3848 168.912 87.582 169.439C87.7522 169.891 88.0189 170.3 88.3637 170.638C88.7019 170.983 89.1113 171.25 89.5633 171.42C90.09 171.617 90.6463 171.724 91.2085 171.735C91.9311 171.767 92.1617 171.776 94.0014 171.776C95.8411 171.776 96.0717 171.768 96.7943 171.735C97.3565 171.724 97.9128 171.617 98.4395 171.42C98.8893 171.246 99.2978 170.979 99.6389 170.638C99.98 170.297 100.246 169.888 100.42 169.438C100.617 168.912 100.724 168.355 100.735 167.793C100.767 167.071 100.775 166.839 100.775 165.001C100.775 163.162 100.767 162.93 100.734 162.208C100.723 161.646 100.617 161.089 100.419 160.563C100.249 160.111 99.9826 159.701 99.6379 159.363C99.2996 159.018 98.8902 158.752 98.4382 158.581C97.9115 158.384 97.3553 158.278 96.793 158.267C96.0711 158.234 95.8395 158.227 94.0008 158.227Z" fill="black"/>
<path d="M94.0021 161.523C93.3141 161.523 92.6416 161.727 92.0695 162.11C91.4974 162.492 91.0515 163.035 90.7882 163.671C90.5249 164.307 90.4561 165.006 90.5903 165.681C90.7245 166.356 91.0558 166.975 91.5423 167.462C92.0288 167.948 92.6487 168.28 93.3235 168.414C93.9983 168.548 94.6977 168.479 95.3334 168.216C95.969 167.953 96.5123 167.507 96.8946 166.935C97.2768 166.363 97.4809 165.69 97.4809 165.002C97.4809 164.08 97.1144 163.195 96.462 162.542C95.8096 161.89 94.9248 161.523 94.0021 161.523ZM94.0021 167.26C93.5555 167.26 93.119 167.128 92.7476 166.88C92.3763 166.632 92.0869 166.279 91.916 165.866C91.7451 165.454 91.7003 165 91.7875 164.562C91.8746 164.124 92.0897 163.721 92.4055 163.405C92.7213 163.09 93.1236 162.875 93.5616 162.787C93.9996 162.7 94.4537 162.745 94.8663 162.916C95.2789 163.087 95.6315 163.376 95.8797 163.748C96.1278 164.119 96.2602 164.556 96.2602 165.002C96.2602 165.601 96.0223 166.175 95.5988 166.599C95.1754 167.022 94.601 167.26 94.0021 167.26Z" fill="black"/>
<path d="M97.6176 162.198C98.0665 162.198 98.4305 161.834 98.4305 161.385C98.4305 160.936 98.0665 160.572 97.6176 160.572C97.1686 160.572 96.8047 160.936 96.8047 161.385C96.8047 161.834 97.1686 162.198 97.6176 162.198Z" fill="black"/>
<circle cx="134" cy="165" r="14" fill="white"/>
<circle cx="134" cy="165" r="13.5" stroke="black" stroke-opacity="0.2"/>
<path fill-rule="evenodd" clip-rule="evenodd" d="M134.607 158.227C131.016 158.227 128.127 161.116 128.127 164.706C128.127 167.568 129.99 169.998 132.555 170.862C132.879 170.916 132.987 170.727 132.987 170.538C132.987 170.376 132.987 169.971 132.987 169.431C131.178 169.836 130.8 168.567 130.8 168.567C130.503 167.811 130.071 167.622 130.071 167.622C129.477 167.217 130.125 167.217 130.125 167.217C130.773 167.271 131.124 167.892 131.124 167.892C131.691 168.891 132.636 168.594 133.014 168.432C133.068 168 133.23 167.73 133.419 167.568C131.988 167.406 130.476 166.839 130.476 164.355C130.476 163.653 130.719 163.059 131.151 162.627C131.097 162.465 130.854 161.818 131.205 160.9C131.205 160.9 131.745 160.738 132.987 161.575C133.5 161.44 134.067 161.359 134.607 161.359C135.147 161.359 135.714 161.44 136.227 161.575C137.469 160.738 138.009 160.9 138.009 160.9C138.36 161.791 138.144 162.438 138.063 162.627C138.468 163.086 138.738 163.653 138.738 164.355C138.738 166.839 137.226 167.379 135.768 167.541C136.011 167.73 136.2 168.135 136.2 168.729C136.2 169.593 136.2 170.295 136.2 170.511C136.2 170.673 136.308 170.889 136.659 170.835C139.224 169.998 141.087 167.568 141.087 164.706C141.087 161.116 138.198 158.227 134.607 158.227Z" fill="black"/>
<path d="M367.644 17.176C364.348 17.176 362.156 14.808 362.156 11.224C362.156 7.656 364.412 5.24 367.724 5.24C370.332 5.24 372.332 6.792 372.764 9.16H371.084C370.652 7.656 369.356 6.744 367.676 6.744C365.34 6.744 363.804 8.504 363.804 11.208C363.804 13.912 365.34 15.672 367.676 15.672C369.372 15.672 370.716 14.76 371.148 13.336H372.812C372.316 15.64 370.252 17.176 367.644 17.176ZM388.167 11.208C388.167 14.728 385.863 17.192 382.583 17.192C379.319 17.192 377.047 14.728 377.047 11.208C377.047 7.704 379.335 5.224 382.599 5.224C385.879 5.224 388.167 7.688 388.167 11.208ZM386.519 11.208C386.519 8.52 384.951 6.744 382.599 6.744C380.247 6.744 378.695 8.52 378.695 11.208C378.695 13.896 380.247 15.688 382.599 15.688C384.951 15.688 386.519 13.88 386.519 11.208ZM394.708 17H393.172V5.432H394.708L398.692 15.16L402.676 5.432H404.244V17H402.708V12.424C402.708 10.264 402.724 9.48 402.804 8.664L399.428 17H397.956L394.596 8.696C394.676 9.256 394.708 10.44 394.708 12.056V17ZM414.434 12.872H411.506V17H409.938V5.432H414.434C416.706 5.432 418.162 6.92 418.162 9.144C418.162 11.304 416.69 12.872 414.434 12.872ZM414.162 6.84H411.506V11.464H414.098C415.65 11.464 416.514 10.552 416.514 9.128C416.514 7.672 415.634 6.84 414.162 6.84ZM422.871 17H421.239L425.463 5.432H427.207L431.447 17H429.799L428.759 14.12H423.895L422.871 17ZM426.135 7.928L424.375 12.76H428.295L426.519 7.928C426.439 7.704 426.359 7.432 426.327 7.256C426.295 7.416 426.215 7.688 426.135 7.928ZM437.553 17H435.985V5.432H437.553L443.473 14.376V5.432H445.041V17H443.473L437.553 8.056V17ZM453.471 12.296L449.551 5.432H451.311L453.887 10.056C454.047 10.328 454.143 10.552 454.271 10.824C454.415 10.536 454.447 10.44 454.655 10.056L457.215 5.432H458.927L455.039 12.296V17H453.471V12.296Z" fill="black"/>
<path d="M362.892 62H361.724L365.932 50.544H367.356L371.612 62H370.412L369.292 58.96H364.012L362.892 62ZM366.492 52.16L364.364 57.952H368.924L366.78 52.16C366.732 52 366.652 51.808 366.636 51.696C366.62 51.792 366.556 52 366.492 52.16ZM373.924 62H372.965V50.336H374.069V55.76C374.613 54.624 375.669 54.048 376.981 54.048C379.237 54.048 380.549 55.808 380.549 58.144C380.549 60.464 379.205 62.192 376.949 62.192C375.653 62.192 374.581 61.616 374.037 60.416L373.924 62ZM374.085 58.112C374.085 59.904 375.077 61.184 376.773 61.184C378.453 61.184 379.429 59.904 379.429 58.112C379.429 56.336 378.453 55.04 376.773 55.04C375.077 55.04 374.085 56.336 374.085 58.112ZM381.764 58.128C381.764 55.76 383.428 54.048 385.7 54.048C387.972 54.048 389.636 55.76 389.636 58.128C389.636 60.48 387.972 62.192 385.7 62.192C383.428 62.192 381.764 60.48 381.764 58.128ZM382.884 58.112C382.884 59.936 384.036 61.2 385.7 61.2C387.348 61.2 388.516 59.936 388.516 58.112C388.516 56.32 387.348 55.04 385.7 55.04C384.036 55.04 382.884 56.32 382.884 58.112ZM396.655 54.256H397.759V62H396.799L396.655 60.688C396.223 61.584 395.151 62.192 393.935 62.192C392.111 62.192 391.118 60.944 391.118 59.056V54.24H392.239V58.704C392.239 60.544 393.055 61.2 394.286 61.2C395.775 61.2 396.655 60.208 396.655 58.368V54.256ZM401.834 62H400.746V55.184H399.194V54.256H400.746V51.808H401.834V54.256H403.386V55.184H401.834V62ZM368.732 94.96H364.044V100H362.892V88.544H369.644V89.6H364.044V93.92H368.732V94.96ZM373.978 100.192C371.706 100.192 370.186 98.56 370.186 96.128C370.186 93.712 371.69 92.048 373.898 92.048C375.994 92.048 377.418 93.536 377.418 95.728V96.272H371.258C371.338 98.16 372.33 99.248 373.994 99.248C375.258 99.248 376.074 98.704 376.362 97.68H377.418C377.002 99.312 375.802 100.192 373.978 100.192ZM373.898 92.992C372.442 92.992 371.482 93.952 371.29 95.472H376.314C376.314 93.984 375.354 92.992 373.898 92.992ZM381.329 100.192C379.681 100.192 378.705 99.264 378.705 97.904C378.705 96.48 379.793 95.584 381.601 95.44L384.161 95.232V94.976C384.161 93.456 383.249 92.976 382.113 92.976C380.769 92.976 379.969 93.584 379.969 94.624H378.961C378.961 93.056 380.241 92.048 382.145 92.048C383.937 92.048 385.249 92.944 385.249 94.992V100H384.321L384.177 98.64C383.697 99.616 382.641 100.192 381.329 100.192ZM381.585 99.296C383.217 99.296 384.161 98.16 384.161 96.48V96.064L381.873 96.24C380.417 96.368 379.825 97.008 379.825 97.872C379.825 98.816 380.529 99.296 381.585 99.296ZM389.1 100H388.012V93.184H386.46V92.256H388.012V89.808H389.1V92.256H390.652V93.184H389.1V100ZM397.53 92.256H398.634V100H397.674L397.53 98.688C397.098 99.584 396.026 100.192 394.81 100.192C392.986 100.192 391.993 98.944 391.993 97.056V92.24H393.114V96.704C393.114 98.544 393.93 99.2 395.161 99.2C396.65 99.2 397.53 98.208 397.53 96.368V92.256ZM404.981 92.16V93.152H404.373C402.949 93.152 402.037 94.112 402.037 95.584V100H400.933V92.256H401.973L402.053 93.456C402.357 92.624 403.173 92.08 404.261 92.08C404.501 92.08 404.709 92.096 404.981 92.16ZM409.4 100.192C407.128 100.192 405.608 98.56 405.608 96.128C405.608 93.712 407.112 92.048 409.32 92.048C411.416 92.048 412.84 93.536 412.84 95.728V96.272H406.68C406.76 98.16 407.752 99.248 409.416 99.248C410.68 99.248 411.496 98.704 411.784 97.68H412.84C412.424 99.312 411.224 100.192 409.4 100.192ZM409.32 92.992C407.864 92.992 406.904 93.952 406.712 95.472H411.736C411.736 93.984 410.776 92.992 409.32 92.992ZM413.949 97.824H415.005C415.005 98.72 415.677 99.28 416.765 99.28C417.965 99.28 418.669 98.768 418.669 97.936C418.669 97.296 418.349 96.928 417.437 96.704L416.109 96.368C414.765 96.032 414.109 95.328 414.109 94.272C414.109 92.912 415.245 92.048 416.909 92.048C418.541 92.048 419.597 92.944 419.645 94.384H418.573C418.541 93.488 417.917 92.96 416.877 92.96C415.789 92.96 415.181 93.424 415.181 94.256C415.181 94.848 415.597 95.264 416.445 95.472L417.773 95.808C419.117 96.144 419.725 96.768 419.725 97.888C419.725 99.28 418.541 100.192 416.781 100.192C415.037 100.192 413.949 99.264 413.949 97.824ZM365.148 138L361.74 126.544H362.94L365.26 134.416C365.42 134.976 365.564 135.552 365.708 136.304C365.9 135.472 366.06 134.976 366.236 134.416L368.732 126.544H369.932L372.428 134.416C372.604 134.992 372.764 135.568 372.94 136.304C373.116 135.424 373.26 134.864 373.388 134.432L375.756 126.544H376.924L373.484 138H372.396L369.324 128.272L366.252 138H365.148ZM376.874 134.128C376.874 131.76 378.538 130.048 380.81 130.048C383.082 130.048 384.746 131.76 384.746 134.128C384.746 136.48 383.082 138.192 380.81 138.192C378.538 138.192 376.874 136.48 376.874 134.128ZM377.994 134.112C377.994 135.936 379.146 137.2 380.81 137.2C382.458 137.2 383.626 135.936 383.626 134.112C383.626 132.32 382.458 131.04 380.81 131.04C379.146 131.04 377.994 132.32 377.994 134.112ZM390.559 130.16V131.152H389.951C388.527 131.152 387.615 132.112 387.615 133.584V138H386.511V130.256H387.551L387.631 131.456C387.935 130.624 388.751 130.08 389.839 130.08C390.079 130.08 390.287 130.096 390.559 130.16ZM393.179 138H392.075V126.336H393.179V134.256L397.019 130.256H398.411L395.435 133.344L398.427 138H397.147L394.683 134.128L393.179 135.68V138ZM399.199 135.824H400.255C400.255 136.72 400.927 137.28 402.015 137.28C403.215 137.28 403.919 136.768 403.919 135.936C403.919 135.296 403.599 134.928 402.687 134.704L401.359 134.368C400.015 134.032 399.359 133.328 399.359 132.272C399.359 130.912 400.495 130.048 402.159 130.048C403.791 130.048 404.847 130.944 404.895 132.384H403.823C403.791 131.488 403.167 130.96 402.127 130.96C401.039 130.96 400.431 131.424 400.431 132.256C400.431 132.848 400.847 133.264 401.695 133.472L403.023 133.808C404.367 134.144 404.975 134.768 404.975 135.888C404.975 137.28 403.791 138.192 402.031 138.192C400.287 138.192 399.199 137.264 399.199 135.824ZM367.564 176.176C364.364 176.176 362.188 173.792 362.188 170.272C362.188 166.752 364.396 164.352 367.628 164.352C370.092 164.352 372.028 165.84 372.492 168.112H371.26C370.78 166.464 369.372 165.456 367.58 165.456C365.068 165.456 363.388 167.376 363.388 170.272C363.388 173.152 365.068 175.072 367.58 175.072C369.388 175.072 370.828 174.096 371.324 172.56H372.556C372.028 174.72 370.028 176.176 367.564 176.176ZM376.376 176.192C374.728 176.192 373.752 175.264 373.752 173.904C373.752 172.48 374.84 171.584 376.648 171.44L379.208 171.232V170.976C379.208 169.456 378.296 168.976 377.16 168.976C375.816 168.976 375.016 169.584 375.016 170.624H374.008C374.008 169.056 375.288 168.048 377.192 168.048C378.984 168.048 380.296 168.944 380.296 170.992V176H379.368L379.224 174.64C378.744 175.616 377.688 176.192 376.376 176.192ZM376.632 175.296C378.264 175.296 379.208 174.16 379.208 172.48V172.064L376.92 172.24C375.464 172.368 374.872 173.008 374.872 173.872C374.872 174.816 375.576 175.296 376.632 175.296ZM386.559 168.16V169.152H385.951C384.527 169.152 383.615 170.112 383.615 171.584V176H382.511V168.256H383.551L383.631 169.456C383.935 168.624 384.751 168.08 385.839 168.08C386.079 168.08 386.287 168.096 386.559 168.16ZM390.978 176.192C388.706 176.192 387.186 174.56 387.186 172.128C387.186 169.712 388.69 168.048 390.898 168.048C392.994 168.048 394.418 169.536 394.418 171.728V172.272H388.258C388.338 174.16 389.33 175.248 390.994 175.248C392.258 175.248 393.074 174.704 393.362 173.68H394.418C394.002 175.312 392.802 176.192 390.978 176.192ZM390.898 168.992C389.442 168.992 388.482 169.952 388.29 171.472H393.314C393.314 169.984 392.354 168.992 390.898 168.992ZM399.431 176.192C397.159 176.192 395.639 174.56 395.639 172.128C395.639 169.712 397.143 168.048 399.351 168.048C401.447 168.048 402.871 169.536 402.871 171.728V172.272H396.711C396.791 174.16 397.783 175.248 399.447 175.248C400.711 175.248 401.527 174.704 401.815 173.68H402.871C402.455 175.312 401.255 176.192 399.431 176.192ZM399.351 168.992C397.895 168.992 396.935 169.952 396.743 171.472H401.767C401.767 169.984 400.807 168.992 399.351 168.992ZM408.684 168.16V169.152H408.076C406.652 169.152 405.74 170.112 405.74 171.584V176H404.636V168.256H405.676L405.756 169.456C406.06 168.624 406.876 168.08 407.964 168.08C408.204 168.08 408.412 168.096 408.684 168.16Z" fill="black" fill-opacity="0.6"/>
<path d="M581.912 17H580.344V5.432H581.912V10.408H587.64V5.432H589.208V17H587.64V11.864H581.912V17ZM601.947 17H594.891V5.432H601.947V6.872H596.459V10.488H601.403V11.88H596.459V15.544H601.947V17ZM608.787 5.432V15.544H613.875V17H607.219V5.432H608.787ZM623.074 12.872H620.146V17H618.578V5.432H623.074C625.346 5.432 626.802 6.92 626.802 9.144C626.802 11.304 625.33 12.872 623.074 12.872ZM622.802 6.84H620.146V11.464H622.738C624.29 11.464 625.154 10.552 625.154 9.128C625.154 7.672 624.274 6.84 622.802 6.84Z" fill="black"/>
<path d="M585.064 62.176C581.864 62.176 579.688 59.792 579.688 56.272C579.688 52.752 581.896 50.352 585.128 50.352C587.592 50.352 589.528 51.84 589.992 54.112H588.76C588.28 52.464 586.872 51.456 585.08 51.456C582.568 51.456 580.888 53.376 580.888 56.272C580.888 59.152 582.568 61.072 585.08 61.072C586.888 61.072 588.328 60.096 588.824 58.56H590.056C589.528 60.72 587.528 62.176 585.064 62.176ZM597.248 54.256H598.352V62H597.392L597.248 60.688C596.816 61.584 595.744 62.192 594.528 62.192C592.704 62.192 591.712 60.944 591.712 59.056V54.24H592.832V58.704C592.832 60.544 593.648 61.2 594.88 61.2C596.368 61.2 597.248 60.208 597.248 58.368V54.256ZM599.84 59.824H600.896C600.896 60.72 601.568 61.28 602.656 61.28C603.856 61.28 604.56 60.768 604.56 59.936C604.56 59.296 604.24 58.928 603.328 58.704L602 58.368C600.656 58.032 600 57.328 600 56.272C600 54.912 601.136 54.048 602.8 54.048C604.432 54.048 605.488 54.944 605.536 56.384H604.464C604.432 55.488 603.808 54.96 602.768 54.96C601.68 54.96 601.072 55.424 601.072 56.256C601.072 56.848 601.488 57.264 602.336 57.472L603.664 57.808C605.008 58.144 605.616 58.768 605.616 59.888C605.616 61.28 604.432 62.192 602.672 62.192C600.928 62.192 599.84 61.264 599.84 59.824ZM609.209 62H608.121V55.184H606.569V54.256H608.121V51.808H609.209V54.256H610.761V55.184H609.209V62ZM611.577 58.128C611.577 55.76 613.241 54.048 615.513 54.048C617.785 54.048 619.449 55.76 619.449 58.128C619.449 60.48 617.785 62.192 615.513 62.192C613.241 62.192 611.577 60.48 611.577 58.128ZM612.697 58.112C612.697 59.936 613.849 61.2 615.513 61.2C617.161 61.2 618.329 59.936 618.329 58.112C618.329 56.32 617.161 55.04 615.513 55.04C613.849 55.04 612.697 56.32 612.697 58.112ZM622.319 62H621.215V54.256H622.174L622.303 55.36C622.687 54.544 623.551 54.048 624.639 54.048C625.855 54.048 626.767 54.688 627.135 55.696C627.487 54.688 628.431 54.048 629.679 54.048C631.359 54.048 632.463 55.136 632.463 56.928V62H631.391V57.152C631.391 55.824 630.655 55.04 629.47 55.04C628.175 55.04 627.407 56.016 627.407 57.216V62H626.319V57.136C626.319 55.824 625.567 55.056 624.399 55.056C623.103 55.056 622.319 56.016 622.319 57.2V62ZM637.931 62.192C635.659 62.192 634.139 60.56 634.139 58.128C634.139 55.712 635.643 54.048 637.851 54.048C639.947 54.048 641.371 55.536 641.371 57.728V58.272H635.211C635.291 60.16 636.283 61.248 637.947 61.248C639.211 61.248 640.027 60.704 640.315 59.68H641.371C640.955 61.312 639.755 62.192 637.931 62.192ZM637.851 54.992C636.395 54.992 635.435 55.952 635.243 57.472H640.267C640.267 55.984 639.307 54.992 637.851 54.992ZM647.184 54.16V55.152H646.576C645.152 55.152 644.24 56.112 644.24 57.584V62H643.136V54.256H644.176L644.256 55.456C644.56 54.624 645.376 54.08 646.464 54.08C646.704 54.08 646.912 54.096 647.184 54.16ZM652.642 53.52C652.642 51.6 654.178 50.336 656.482 50.336C658.546 50.336 659.906 51.488 660.082 53.408H658.914C658.786 52.112 657.906 51.376 656.466 51.376C654.85 51.376 653.794 52.208 653.794 53.504C653.794 54.512 654.386 55.152 655.586 55.456L657.554 55.936C659.346 56.368 660.274 57.392 660.274 58.944C660.274 60.928 658.738 62.192 656.37 62.192C654.146 62.192 652.642 61.024 652.498 59.152H653.682C653.746 60.352 654.802 61.136 656.37 61.136C658.05 61.136 659.122 60.32 659.122 59.008C659.122 57.984 658.546 57.312 657.314 57.024L655.378 56.544C653.586 56.112 652.642 55.088 652.642 53.52ZM667.545 54.256H668.649V62H667.689L667.545 60.688C667.113 61.584 666.041 62.192 664.825 62.192C663.001 62.192 662.009 60.944 662.009 59.056V54.24H663.129V58.704C663.129 60.544 663.945 61.2 665.177 61.2C666.665 61.2 667.545 60.208 667.545 58.368V54.256ZM670.949 65.376V54.256H671.909L672.021 55.824C672.565 54.624 673.653 54.048 674.949 54.048C677.189 54.048 678.533 55.76 678.533 58.096C678.533 60.432 677.237 62.192 674.949 62.192C673.637 62.192 672.597 61.632 672.053 60.512V65.376H670.949ZM672.069 58.128C672.069 59.904 673.061 61.2 674.757 61.2C676.437 61.2 677.413 59.904 677.413 58.128C677.413 56.336 676.437 55.056 674.757 55.056C673.061 55.056 672.069 56.336 672.069 58.128ZM680.293 65.376V54.256H681.253L681.365 55.824C681.909 54.624 682.997 54.048 684.293 54.048C686.533 54.048 687.877 55.76 687.877 58.096C687.877 60.432 686.581 62.192 684.293 62.192C682.981 62.192 681.941 61.632 681.397 60.512V65.376H680.293ZM681.413 58.128C681.413 59.904 682.405 61.2 684.101 61.2C685.781 61.2 686.757 59.904 686.757 58.128C686.757 56.336 685.781 55.056 684.101 55.056C682.405 55.056 681.413 56.336 681.413 58.128ZM689.092 58.128C689.092 55.76 690.756 54.048 693.028 54.048C695.3 54.048 696.964 55.76 696.964 58.128C696.964 60.48 695.3 62.192 693.028 62.192C690.756 62.192 689.092 60.48 689.092 58.128ZM690.212 58.112C690.212 59.936 691.364 61.2 693.028 61.2C694.676 61.2 695.844 59.936 695.844 58.112C695.844 56.32 694.676 55.04 693.028 55.04C691.364 55.04 690.212 56.32 690.212 58.112ZM702.778 54.16V55.152H702.17C700.746 55.152 699.834 56.112 699.834 57.584V62H698.73V54.256H699.77L699.85 55.456C700.154 54.624 700.97 54.08 702.058 54.08C702.298 54.08 702.506 54.096 702.778 54.16ZM706.334 62H705.246V55.184H703.694V54.256H705.246V51.808H706.334V54.256H707.886V55.184H706.334V62ZM583.88 100H580.392V88.544H583.848C587.304 88.544 589.608 90.848 589.608 94.272C589.608 97.696 587.32 100 583.88 100ZM583.8 89.6H581.544V98.944H583.832C586.632 98.944 588.424 97.12 588.424 94.272C588.424 91.408 586.632 89.6 583.8 89.6ZM594.697 100.192C592.425 100.192 590.905 98.56 590.905 96.128C590.905 93.712 592.409 92.048 594.617 92.048C596.713 92.048 598.137 93.536 598.137 95.728V96.272H591.977C592.057 98.16 593.049 99.248 594.713 99.248C595.977 99.248 596.793 98.704 597.081 97.68H598.137C597.721 99.312 596.521 100.192 594.697 100.192ZM594.617 92.992C593.161 92.992 592.201 93.952 592.009 95.472H597.033C597.033 93.984 596.073 92.992 594.617 92.992ZM601.054 100H599.95V88.336H601.054V100ZM603.946 90.128C603.498 90.128 603.13 89.76 603.13 89.312C603.13 88.864 603.498 88.48 603.946 88.48C604.394 88.48 604.778 88.864 604.778 89.312C604.778 89.76 604.394 90.128 603.946 90.128ZM603.402 100V92.256H604.506V100H603.402ZM608.968 100L605.8 92.256H606.984L608.984 97.248C609.192 97.808 609.4 98.336 609.544 98.848C609.688 98.32 609.896 97.808 610.12 97.248L612.152 92.256H613.288L610.072 100H608.968ZM617.494 100.192C615.222 100.192 613.702 98.56 613.702 96.128C613.702 93.712 615.206 92.048 617.414 92.048C619.51 92.048 620.934 93.536 620.934 95.728V96.272H614.774C614.854 98.16 615.846 99.248 617.51 99.248C618.774 99.248 619.59 98.704 619.878 97.68H620.934C620.518 99.312 619.318 100.192 617.494 100.192ZM617.414 92.992C615.958 92.992 614.998 93.952 614.806 95.472H619.83C619.83 93.984 618.87 92.992 617.414 92.992ZM626.747 92.16V93.152H626.139C624.715 93.152 623.803 94.112 623.803 95.584V100H622.699V92.256H623.739L623.819 93.456C624.123 92.624 624.939 92.08 626.027 92.08C626.267 92.08 626.475 92.096 626.747 92.16ZM627.665 103.376V102.464H628.513C629.185 102.464 629.857 102.416 630.241 101.376L630.577 100.464L627.441 92.256H628.609L631.105 99.008L633.553 92.256H634.689L631.137 101.776C630.689 102.992 629.937 103.488 628.833 103.488C628.369 103.488 628.017 103.456 627.665 103.376ZM644.146 100H640.658V88.544H644.114C647.57 88.544 649.874 90.848 649.874 94.272C649.874 97.696 647.586 100 644.146 100ZM644.066 89.6H641.81V98.944H644.098C646.898 98.944 648.69 97.12 648.69 94.272C648.69 91.408 646.898 89.6 644.066 89.6ZM654.963 100.192C652.691 100.192 651.171 98.56 651.171 96.128C651.171 93.712 652.674 92.048 654.883 92.048C656.979 92.048 658.403 93.536 658.403 95.728V96.272H652.243C652.323 98.16 653.315 99.248 654.979 99.248C656.243 99.248 657.059 98.704 657.347 97.68H658.403C657.987 99.312 656.787 100.192 654.963 100.192ZM654.883 92.992C653.427 92.992 652.467 93.952 652.275 95.472H657.299C657.299 93.984 656.339 92.992 654.883 92.992ZM661.866 100H660.778V93.184H659.226V92.256H660.778V89.808H661.866V92.256H663.418V93.184H661.866V100ZM666.954 100.192C665.306 100.192 664.33 99.264 664.33 97.904C664.33 96.48 665.418 95.584 667.226 95.44L669.786 95.232V94.976C669.786 93.456 668.874 92.976 667.738 92.976C666.394 92.976 665.594 93.584 665.594 94.624H664.586C664.586 93.056 665.866 92.048 667.77 92.048C669.562 92.048 670.874 92.944 670.874 94.992V100H669.946L669.802 98.64C669.322 99.616 668.266 100.192 666.954 100.192ZM667.21 99.296C668.842 99.296 669.786 98.16 669.786 96.48V96.064L667.498 96.24C666.042 96.368 665.45 97.008 665.45 97.872C665.45 98.816 666.154 99.296 667.21 99.296ZM673.634 90.128C673.186 90.128 672.818 89.76 672.818 89.312C672.818 88.864 673.186 88.48 673.634 88.48C674.082 88.48 674.466 88.864 674.466 89.312C674.466 89.76 674.082 90.128 673.634 90.128ZM673.09 100V92.256H674.194V100H673.09ZM677.648 100H676.544V88.336H677.648V100ZM679.34 97.824H680.396C680.396 98.72 681.068 99.28 682.156 99.28C683.356 99.28 684.06 98.768 684.06 97.936C684.06 97.296 683.74 96.928 682.828 96.704L681.5 96.368C680.156 96.032 679.5 95.328 679.5 94.272C679.5 92.912 680.636 92.048 682.3 92.048C683.932 92.048 684.988 92.944 685.036 94.384H683.964C683.932 93.488 683.308 92.96 682.268 92.96C681.18 92.96 680.572 93.424 680.572 94.256C680.572 94.848 680.988 95.264 681.836 95.472L683.164 95.808C684.508 96.144 685.116 96.768 685.116 97.888C685.116 99.28 683.932 100.192 682.172 100.192C680.428 100.192 679.34 99.264 679.34 97.824ZM579.192 127.6V126.544H587.4V127.6H583.864V138H582.712V127.6H579.192ZM590.806 138.192C588.534 138.192 587.014 136.56 587.014 134.128C587.014 131.712 588.518 130.048 590.726 130.048C592.822 130.048 594.246 131.536 594.246 133.728V134.272H588.086C588.166 136.16 589.158 137.248 590.822 137.248C592.086 137.248 592.902 136.704 593.19 135.68H594.246C593.83 137.312 592.63 138.192 590.806 138.192ZM590.726 130.992C589.27 130.992 588.31 131.952 588.118 133.472H593.142C593.142 131.984 592.182 130.992 590.726 130.992ZM600.059 130.16V131.152H599.451C598.027 131.152 597.115 132.112 597.115 133.584V138H596.011V130.256H597.051L597.131 131.456C597.435 130.624 598.251 130.08 599.339 130.08C599.579 130.08 599.787 130.096 600.059 130.16ZM602.631 138H601.527V130.256H602.487L602.615 131.36C602.999 130.544 603.863 130.048 604.951 130.048C606.167 130.048 607.079 130.688 607.447 131.696C607.799 130.688 608.743 130.048 609.991 130.048C611.671 130.048 612.775 131.136 612.775 132.928V138H611.703V133.152C611.703 131.824 610.967 131.04 609.783 131.04C608.487 131.04 607.719 132.016 607.719 133.216V138H606.631V133.136C606.631 131.824 605.879 131.056 604.711 131.056C603.415 131.056 602.631 132.016 602.631 133.2V138ZM614.246 135.824H615.302C615.302 136.72 615.974 137.28 617.062 137.28C618.262 137.28 618.966 136.768 618.966 135.936C618.966 135.296 618.646 134.928 617.734 134.704L616.406 134.368C615.062 134.032 614.406 133.328 614.406 132.272C614.406 130.912 615.542 130.048 617.206 130.048C618.838 130.048 619.894 130.944 619.942 132.384H618.87C618.838 131.488 618.214 130.96 617.174 130.96C616.086 130.96 615.478 131.424 615.478 132.256C615.478 132.848 615.894 133.264 616.742 133.472L618.07 133.808C619.414 134.144 620.022 134.768 620.022 135.888C620.022 137.28 618.838 138.192 617.078 138.192C615.334 138.192 614.246 137.264 614.246 135.824ZM634.033 138L633.009 136.816C632.113 137.712 630.865 138.208 629.361 138.208C626.945 138.208 625.377 136.976 625.377 135.088C625.377 133.632 626.241 132.56 628.305 131.44C627.265 130.224 626.849 129.536 626.849 128.688C626.849 127.312 627.889 126.352 629.441 126.352C630.913 126.352 631.921 127.248 631.921 128.592C631.921 129.728 631.329 130.608 629.809 131.632L632.929 135.232C633.249 134.56 633.425 133.728 633.425 132.768H634.497C634.497 134.048 634.193 135.152 633.633 136.032L635.345 138H634.033ZM629.217 130.944L629.233 130.96C630.353 130.256 630.865 129.52 630.865 128.624C630.865 127.792 630.321 127.28 629.425 127.28C628.497 127.28 627.921 127.824 627.921 128.688C627.921 129.264 628.177 129.744 629.217 130.944ZM626.513 135.024C626.513 136.416 627.601 137.248 629.425 137.248C630.689 137.248 631.681 136.848 632.369 136.08L628.881 132.096C627.153 133.056 626.513 133.856 626.513 135.024ZM645.408 138.176C642.208 138.176 640.032 135.792 640.032 132.272C640.032 128.752 642.24 126.352 645.472 126.352C647.936 126.352 649.872 127.84 650.336 130.112H649.104C648.624 128.464 647.216 127.456 645.424 127.456C642.912 127.456 641.232 129.376 641.232 132.272C641.232 135.152 642.912 137.072 645.424 137.072C647.232 137.072 648.672 136.096 649.168 134.56H650.4C649.872 136.72 647.872 138.176 645.408 138.176ZM651.608 134.128C651.608 131.76 653.272 130.048 655.544 130.048C657.816 130.048 659.48 131.76 659.48 134.128C659.48 136.48 657.816 138.192 655.544 138.192C653.272 138.192 651.608 136.48 651.608 134.128ZM652.728 134.112C652.728 135.936 653.88 137.2 655.544 137.2C657.192 137.2 658.36 135.936 658.36 134.112C658.36 132.32 657.192 131.04 655.544 131.04C653.88 131.04 652.728 132.32 652.728 134.112ZM662.35 138H661.246V130.256H662.206L662.366 131.6C662.878 130.608 663.902 130.048 665.022 130.048C667.15 130.048 668.03 131.312 668.03 133.264V138H666.926V133.504C666.926 131.696 666.11 131.056 664.83 131.056C663.246 131.056 662.35 132.208 662.35 133.952V138ZM673.27 138.192C671.014 138.192 669.686 136.464 669.686 134.144C669.686 131.808 671.014 130.048 673.318 130.048C674.598 130.048 675.622 130.608 676.166 131.728V126.336H677.27V138H676.31L676.198 136.416C675.654 137.616 674.566 138.192 673.27 138.192ZM673.462 137.184C675.158 137.184 676.15 135.904 676.15 134.112C676.15 132.336 675.158 131.04 673.462 131.04C671.782 131.04 670.806 132.336 670.806 134.112C670.806 135.904 671.782 137.184 673.462 137.184ZM680.118 128.128C679.67 128.128 679.302 127.76 679.302 127.312C679.302 126.864 679.67 126.48 680.118 126.48C680.566 126.48 680.95 126.864 680.95 127.312C680.95 127.76 680.566 128.128 680.118 128.128ZM679.574 138V130.256H680.678V138H679.574ZM684.756 138H683.668V131.184H682.116V130.256H683.668V127.808H684.756V130.256H686.308V131.184H684.756V138ZM688.29 128.128C687.842 128.128 687.474 127.76 687.474 127.312C687.474 126.864 687.842 126.48 688.29 126.48C688.738 126.48 689.122 126.864 689.122 127.312C689.122 127.76 688.738 128.128 688.29 128.128ZM687.746 138V130.256H688.85V138H687.746ZM690.608 134.128C690.608 131.76 692.272 130.048 694.544 130.048C696.816 130.048 698.48 131.76 698.48 134.128C698.48 136.48 696.816 138.192 694.544 138.192C692.272 138.192 690.608 136.48 690.608 134.128ZM691.728 134.112C691.728 135.936 692.88 137.2 694.544 137.2C696.192 137.2 697.36 135.936 697.36 134.112C697.36 132.32 696.192 131.04 694.544 131.04C692.88 131.04 691.728 132.32 691.728 134.112ZM701.35 138H700.246V130.256H701.206L701.366 131.6C701.878 130.608 702.902 130.048 704.022 130.048C706.15 130.048 707.03 131.312 707.03 133.264V138H705.926V133.504C705.926 131.696 705.11 131.056 703.83 131.056C702.246 131.056 701.35 132.208 701.35 133.952V138ZM708.48 135.824H709.536C709.536 136.72 710.208 137.28 711.296 137.28C712.496 137.28 713.2 136.768 713.2 135.936C713.2 135.296 712.88 134.928 711.968 134.704L710.64 134.368C709.296 134.032 708.64 133.328 708.64 132.272C708.64 130.912 709.776 130.048 711.44 130.048C713.072 130.048 714.128 130.944 714.176 132.384H713.104C713.072 131.488 712.448 130.96 711.408 130.96C710.32 130.96 709.712 131.424 709.712 132.256C709.712 132.848 710.128 133.264 710.976 133.472L712.304 133.808C713.648 134.144 714.256 134.768 714.256 135.888C714.256 137.28 713.072 138.192 711.312 138.192C709.568 138.192 708.48 137.264 708.48 135.824ZM584.76 171.792H581.544V176H580.392V164.544H584.76C586.968 164.544 588.36 165.984 588.36 168.144C588.36 170.224 586.952 171.792 584.76 171.792ZM584.6 165.584H581.544V170.752H584.536C586.2 170.752 587.16 169.696 587.16 168.128C587.16 166.544 586.184 165.584 584.6 165.584ZM594.028 168.16V169.152H593.42C591.996 169.152 591.084 170.112 591.084 171.584V176H589.98V168.256H591.02L591.1 169.456C591.404 168.624 592.22 168.08 593.308 168.08C593.548 168.08 593.756 168.096 594.028 168.16ZM596.04 166.128C595.592 166.128 595.224 165.76 595.224 165.312C595.224 164.864 595.592 164.48 596.04 164.48C596.488 164.48 596.872 164.864 596.872 165.312C596.872 165.76 596.488 166.128 596.04 166.128ZM595.496 176V168.256H596.6V176H595.496ZM601.062 176L597.894 168.256H599.078L601.078 173.248C601.286 173.808 601.494 174.336 601.638 174.848C601.782 174.32 601.99 173.808 602.214 173.248L604.246 168.256H605.382L602.166 176H601.062ZM608.564 176.192C606.916 176.192 605.94 175.264 605.94 173.904C605.94 172.48 607.028 171.584 608.836 171.44L611.396 171.232V170.976C611.396 169.456 610.484 168.976 609.348 168.976C608.004 168.976 607.204 169.584 607.204 170.624H606.196C606.196 169.056 607.476 168.048 609.38 168.048C611.172 168.048 612.484 168.944 612.484 170.992V176H611.556L611.412 174.64C610.932 175.616 609.876 176.192 608.564 176.192ZM608.82 175.296C610.452 175.296 611.396 174.16 611.396 172.48V172.064L609.108 172.24C607.652 172.368 607.06 173.008 607.06 173.872C607.06 174.816 607.764 175.296 608.82 175.296ZM614.155 172.144C614.155 169.712 615.643 168.048 617.899 168.048C619.691 168.048 621.003 169.088 621.307 170.688H620.203C619.915 169.616 618.987 169.024 617.915 169.024C616.347 169.024 615.243 170.224 615.243 172.128C615.243 173.968 616.267 175.2 617.835 175.2C618.987 175.2 619.915 174.56 620.219 173.568H621.339C620.971 175.152 619.595 176.192 617.835 176.192C615.643 176.192 614.155 174.576 614.155 172.144ZM622.071 179.376V178.464H622.919C623.591 178.464 624.263 178.416 624.647 177.376L624.983 176.464L621.847 168.256H623.015L625.511 175.008L627.959 168.256H629.095L625.543 177.776C625.095 178.992 624.343 179.488 623.239 179.488C622.775 179.488 622.423 179.456 622.071 179.376ZM639.432 171.792H636.216V176H635.064V164.544H639.432C641.64 164.544 643.032 165.984 643.032 168.144C643.032 170.224 641.624 171.792 639.432 171.792ZM639.272 165.584H636.216V170.752H639.208C640.872 170.752 641.832 169.696 641.832 168.128C641.832 166.544 640.856 165.584 639.272 165.584ZM643.764 172.128C643.764 169.76 645.428 168.048 647.7 168.048C649.972 168.048 651.636 169.76 651.636 172.128C651.636 174.48 649.972 176.192 647.7 176.192C645.428 176.192 643.764 174.48 643.764 172.128ZM644.884 172.112C644.884 173.936 646.036 175.2 647.7 175.2C649.348 175.2 650.516 173.936 650.516 172.112C650.516 170.32 649.348 169.04 647.7 169.04C646.036 169.04 644.884 170.32 644.884 172.112ZM654.554 176H653.45V164.336H654.554V176ZM657.446 166.128C656.998 166.128 656.63 165.76 656.63 165.312C656.63 164.864 656.998 164.48 657.446 164.48C657.894 164.48 658.278 164.864 658.278 165.312C658.278 165.76 657.894 166.128 657.446 166.128ZM656.902 176V168.256H658.006V176H656.902ZM659.764 172.144C659.764 169.712 661.252 168.048 663.508 168.048C665.3 168.048 666.612 169.088 666.916 170.688H665.812C665.524 169.616 664.596 169.024 663.524 169.024C661.956 169.024 660.852 170.224 660.852 172.128C660.852 173.968 661.876 175.2 663.444 175.2C664.596 175.2 665.524 174.56 665.828 173.568H666.948C666.58 175.152 665.204 176.192 663.444 176.192C661.252 176.192 659.764 174.576 659.764 172.144ZM667.681 179.376V178.464H668.529C669.201 178.464 669.873 178.416 670.257 177.376L670.593 176.464L667.457 168.256H668.625L671.121 175.008L673.569 168.256H674.705L671.153 177.776C670.705 178.992 669.953 179.488 668.849 179.488C668.385 179.488 668.033 179.456 667.681 179.376Z" fill="black" fill-opacity="0.6"/>
<path d="M835.956 12.088H831.412V17H829.844V5.432H836.82V6.872H831.412V10.664H835.956V12.088ZM841.48 17H839.848L844.072 5.432H845.816L850.056 17H848.408L847.368 14.12H842.504L841.48 17ZM844.744 7.928L842.984 12.76H846.904L845.128 7.928C845.048 7.704 844.968 7.432 844.936 7.256C844.904 7.416 844.824 7.688 844.744 7.928ZM863.198 17.768L861.95 16.36C861.086 16.888 860.062 17.192 858.926 17.192C855.662 17.192 853.39 14.728 853.39 11.208C853.39 7.704 855.678 5.224 858.942 5.224C862.222 5.224 864.51 7.688 864.51 11.208C864.51 12.936 863.95 14.408 863.006 15.464L864.222 16.84L863.198 17.768ZM862.862 11.208C862.862 8.52 861.294 6.744 858.942 6.744C856.59 6.744 855.038 8.52 855.038 11.208C855.038 13.896 856.59 15.688 858.942 15.688C859.678 15.688 860.334 15.512 860.894 15.176L859.374 13.464L860.398 12.536L861.934 14.264C862.526 13.496 862.862 12.44 862.862 11.208Z" fill="black"/>
<path d="M829.892 62H828.724L832.932 50.544H834.356L838.612 62H837.412L836.292 58.96H831.012L829.892 62ZM833.492 52.16L831.364 57.952H835.924L833.78 52.16C833.732 52 833.652 51.808 833.636 51.696C833.62 51.792 833.556 52 833.492 52.16ZM839.155 58.144C839.155 55.712 840.643 54.048 842.899 54.048C844.691 54.048 846.003 55.088 846.307 56.688H845.203C844.915 55.616 843.987 55.024 842.915 55.024C841.347 55.024 840.243 56.224 840.243 58.128C840.243 59.968 841.267 61.2 842.835 61.2C843.987 61.2 844.915 60.56 845.219 59.568H846.339C845.971 61.152 844.595 62.192 842.835 62.192C840.643 62.192 839.155 60.576 839.155 58.144ZM847.467 58.144C847.467 55.712 848.955 54.048 851.211 54.048C853.003 54.048 854.315 55.088 854.619 56.688H853.515C853.227 55.616 852.299 55.024 851.227 55.024C849.659 55.024 848.555 56.224 848.555 58.128C848.555 59.968 849.579 61.2 851.147 61.2C852.299 61.2 853.227 60.56 853.531 59.568H854.651C854.283 61.152 852.907 62.192 851.147 62.192C848.955 62.192 847.467 60.576 847.467 58.144ZM855.78 58.128C855.78 55.76 857.444 54.048 859.716 54.048C861.988 54.048 863.652 55.76 863.652 58.128C863.652 60.48 861.988 62.192 859.716 62.192C857.444 62.192 855.78 60.48 855.78 58.128ZM856.9 58.112C856.9 59.936 858.052 61.2 859.716 61.2C861.364 61.2 862.532 59.936 862.532 58.112C862.532 56.32 861.364 55.04 859.716 55.04C858.052 55.04 856.9 56.32 856.9 58.112ZM870.67 54.256H871.774V62H870.814L870.67 60.688C870.238 61.584 869.166 62.192 867.95 62.192C866.126 62.192 865.134 60.944 865.134 59.056V54.24H866.254V58.704C866.254 60.544 867.07 61.2 868.302 61.2C869.79 61.2 870.67 60.208 870.67 58.368V54.256ZM875.178 62H874.074V54.256H875.034L875.194 55.6C875.706 54.608 876.73 54.048 877.85 54.048C879.978 54.048 880.858 55.312 880.858 57.264V62H879.754V57.504C879.754 55.696 878.938 55.056 877.658 55.056C876.074 55.056 875.178 56.208 875.178 57.952V62ZM884.834 62H883.746V55.184H882.194V54.256H883.746V51.808H884.834V54.256H886.386V55.184H884.834V62ZM831.028 100H829.892V88.544H831.028L835.204 98.64L839.38 88.544H840.532V100H839.396V94.56C839.396 92.56 839.428 91.68 839.492 90.896L835.764 100H834.66L830.932 90.944C830.996 91.376 831.028 92.64 831.028 94.384V100ZM845.298 100.192C843.65 100.192 842.674 99.264 842.674 97.904C842.674 96.48 843.762 95.584 845.57 95.44L848.13 95.232V94.976C848.13 93.456 847.218 92.976 846.082 92.976C844.738 92.976 843.938 93.584 843.938 94.624H842.93C842.93 93.056 844.21 92.048 846.114 92.048C847.906 92.048 849.218 92.944 849.218 94.992V100H848.29L848.146 98.64C847.666 99.616 846.61 100.192 845.298 100.192ZM845.554 99.296C847.186 99.296 848.13 98.16 848.13 96.48V96.064L845.842 96.24C844.386 96.368 843.794 97.008 843.794 97.872C843.794 98.816 844.498 99.296 845.554 99.296ZM852.537 100H851.433V92.256H852.393L852.553 93.6C853.065 92.608 854.089 92.048 855.209 92.048C857.337 92.048 858.217 93.312 858.217 95.264V100H857.113V95.504C857.113 93.696 856.297 93.056 855.017 93.056C853.433 93.056 852.537 94.208 852.537 95.952V100ZM862.642 100.192C860.994 100.192 860.018 99.264 860.018 97.904C860.018 96.48 861.106 95.584 862.914 95.44L865.474 95.232V94.976C865.474 93.456 864.562 92.976 863.426 92.976C862.082 92.976 861.282 93.584 861.282 94.624H860.274C860.274 93.056 861.554 92.048 863.458 92.048C865.25 92.048 866.562 92.944 866.562 94.992V100H865.634L865.49 98.64C865.01 99.616 863.954 100.192 862.642 100.192ZM862.898 99.296C864.53 99.296 865.474 98.16 865.474 96.48V96.064L863.186 96.24C861.73 96.368 861.138 97.008 861.138 97.872C861.138 98.816 861.842 99.296 862.898 99.296ZM868.249 95.904C868.249 93.792 869.609 92.048 871.881 92.048C873.225 92.048 874.249 92.672 874.745 93.808L874.857 92.256H875.817V99.76C875.817 102.064 874.345 103.568 872.073 103.568C870.089 103.568 868.697 102.448 868.393 100.576H869.497C869.737 101.824 870.697 102.56 872.089 102.56C873.673 102.56 874.729 101.488 874.729 99.872V98.032C874.201 99.12 873.129 99.76 871.801 99.76C869.593 99.76 868.249 98.016 868.249 95.904ZM869.353 95.888C869.353 97.472 870.329 98.768 871.961 98.768C873.641 98.768 874.633 97.552 874.633 95.888C874.633 94.24 873.673 93.024 871.977 93.024C870.313 93.024 869.353 94.32 869.353 95.888ZM881.369 100.192C879.097 100.192 877.577 98.56 877.577 96.128C877.577 93.712 879.081 92.048 881.289 92.048C883.385 92.048 884.809 93.536 884.809 95.728V96.272H878.649C878.729 98.16 879.721 99.248 881.385 99.248C882.649 99.248 883.465 98.704 883.753 97.68H884.809C884.393 99.312 883.193 100.192 881.369 100.192ZM881.289 92.992C879.833 92.992 878.873 93.952 878.681 95.472H883.705C883.705 93.984 882.745 92.992 881.289 92.992ZM894.739 100H891.251V88.544H894.707C898.163 88.544 900.467 90.848 900.467 94.272C900.467 97.696 898.179 100 894.739 100ZM894.659 89.6H892.403V98.944H894.691C897.491 98.944 899.283 97.12 899.283 94.272C899.283 91.408 897.491 89.6 894.659 89.6ZM905.556 100.192C903.284 100.192 901.764 98.56 901.764 96.128C901.764 93.712 903.268 92.048 905.476 92.048C907.572 92.048 908.996 93.536 908.996 95.728V96.272H902.836C902.916 98.16 903.908 99.248 905.572 99.248C906.836 99.248 907.652 98.704 907.94 97.68H908.996C908.58 99.312 907.38 100.192 905.556 100.192ZM905.476 92.992C904.02 92.992 903.06 93.952 902.868 95.472H907.892C907.892 93.984 906.932 92.992 905.476 92.992ZM911.913 100H910.809V88.336H911.913V100ZM914.805 90.128C914.357 90.128 913.989 89.76 913.989 89.312C913.989 88.864 914.357 88.48 914.805 88.48C915.253 88.48 915.637 88.864 915.637 89.312C915.637 89.76 915.253 90.128 914.805 90.128ZM914.261 100V92.256H915.365V100H914.261ZM919.828 100L916.66 92.256H917.844L919.844 97.248C920.052 97.808 920.26 98.336 920.404 98.848C920.548 98.32 920.756 97.808 920.98 97.248L923.012 92.256H924.148L920.932 100H919.828ZM928.353 100.192C926.081 100.192 924.561 98.56 924.561 96.128C924.561 93.712 926.065 92.048 928.273 92.048C930.369 92.048 931.793 93.536 931.793 95.728V96.272H925.633C925.713 98.16 926.705 99.248 928.369 99.248C929.633 99.248 930.449 98.704 930.737 97.68H931.793C931.377 99.312 930.177 100.192 928.353 100.192ZM928.273 92.992C926.817 92.992 925.857 93.952 925.665 95.472H930.689C930.689 93.984 929.729 92.992 928.273 92.992ZM937.606 92.16V93.152H936.998C935.574 93.152 934.662 94.112 934.662 95.584V100H933.558V92.256H934.598L934.678 93.456C934.982 92.624 935.798 92.08 936.886 92.08C937.126 92.08 937.334 92.096 937.606 92.16ZM939.618 90.128C939.17 90.128 938.802 89.76 938.802 89.312C938.802 88.864 939.17 88.48 939.618 88.48C940.066 88.48 940.45 88.864 940.45 89.312C940.45 89.76 940.066 90.128 939.618 90.128ZM939.074 100V92.256H940.178V100H939.074ZM945.728 100.192C943.456 100.192 941.936 98.56 941.936 96.128C941.936 93.712 943.44 92.048 945.648 92.048C947.744 92.048 949.168 93.536 949.168 95.728V96.272H943.008C943.088 98.16 944.08 99.248 945.744 99.248C947.008 99.248 947.824 98.704 948.112 97.68H949.168C948.752 99.312 947.552 100.192 945.728 100.192ZM945.648 92.992C944.192 92.992 943.232 93.952 943.04 95.472H948.064C948.064 93.984 947.104 92.992 945.648 92.992ZM950.277 97.824H951.333C951.333 98.72 952.005 99.28 953.093 99.28C954.293 99.28 954.997 98.768 954.997 97.936C954.997 97.296 954.677 96.928 953.765 96.704L952.437 96.368C951.093 96.032 950.437 95.328 950.437 94.272C950.437 92.912 951.573 92.048 953.237 92.048C954.869 92.048 955.925 92.944 955.973 94.384H954.901C954.869 93.488 954.245 92.96 953.205 92.96C952.117 92.96 951.509 93.424 951.509 94.256C951.509 94.848 951.925 95.264 952.773 95.472L954.101 95.808C955.445 96.144 956.053 96.768 956.053 97.888C956.053 99.28 954.869 100.192 953.109 100.192C951.365 100.192 950.277 99.264 950.277 97.824ZM840.1 132.272C840.1 135.744 837.844 138.192 834.644 138.192C831.428 138.192 829.188 135.744 829.188 132.272C829.188 128.8 831.444 126.336 834.644 126.336C837.86 126.336 840.1 128.784 840.1 132.272ZM838.916 132.272C838.916 129.408 837.172 127.456 834.644 127.456C832.116 127.456 830.388 129.408 830.388 132.272C830.388 135.136 832.116 137.088 834.644 137.088C837.172 137.088 838.916 135.12 838.916 132.272ZM845.997 130.16V131.152H845.389C843.965 131.152 843.053 132.112 843.053 133.584V138H841.949V130.256H842.989L843.069 131.456C843.373 130.624 844.189 130.08 845.277 130.08C845.517 130.08 845.725 130.096 845.997 130.16ZM850.208 138.192C847.952 138.192 846.624 136.464 846.624 134.144C846.624 131.808 847.952 130.048 850.256 130.048C851.536 130.048 852.56 130.608 853.104 131.728V126.336H854.208V138H853.248L853.136 136.416C852.592 137.616 851.504 138.192 850.208 138.192ZM850.4 137.184C852.096 137.184 853.088 135.904 853.088 134.112C853.088 132.336 852.096 131.04 850.4 131.04C848.72 131.04 847.744 132.336 847.744 134.112C847.744 135.904 848.72 137.184 850.4 137.184ZM859.759 138.192C857.487 138.192 855.967 136.56 855.967 134.128C855.967 131.712 857.471 130.048 859.679 130.048C861.775 130.048 863.199 131.536 863.199 133.728V134.272H857.039C857.119 136.16 858.111 137.248 859.775 137.248C861.039 137.248 861.855 136.704 862.143 135.68H863.199C862.783 137.312 861.583 138.192 859.759 138.192ZM859.679 130.992C858.223 130.992 857.263 131.952 857.071 133.472H862.095C862.095 131.984 861.135 130.992 859.679 130.992ZM869.013 130.16V131.152H868.405C866.981 131.152 866.069 132.112 866.069 133.584V138H864.965V130.256H866.005L866.085 131.456C866.389 130.624 867.205 130.08 868.293 130.08C868.533 130.08 868.741 130.096 869.013 130.16ZM869.824 135.824H870.88C870.88 136.72 871.552 137.28 872.64 137.28C873.84 137.28 874.544 136.768 874.544 135.936C874.544 135.296 874.224 134.928 873.312 134.704L871.984 134.368C870.64 134.032 869.984 133.328 869.984 132.272C869.984 130.912 871.12 130.048 872.784 130.048C874.416 130.048 875.472 130.944 875.52 132.384H874.448C874.416 131.488 873.792 130.96 872.752 130.96C871.664 130.96 871.056 131.424 871.056 132.256C871.056 132.848 871.472 133.264 872.32 133.472L873.648 133.808C874.992 134.144 875.6 134.768 875.6 135.888C875.6 137.28 874.416 138.192 872.656 138.192C870.912 138.192 869.824 137.264 869.824 135.824ZM834.26 171.792H831.044V176H829.892V164.544H834.26C836.468 164.544 837.86 165.984 837.86 168.144C837.86 170.224 836.452 171.792 834.26 171.792ZM834.1 165.584H831.044V170.752H834.036C835.7 170.752 836.66 169.696 836.66 168.128C836.66 166.544 835.684 165.584 834.1 165.584ZM841.392 176.192C839.744 176.192 838.768 175.264 838.768 173.904C838.768 172.48 839.856 171.584 841.664 171.44L844.224 171.232V170.976C844.224 169.456 843.312 168.976 842.176 168.976C840.832 168.976 840.032 169.584 840.032 170.624H839.024C839.024 169.056 840.304 168.048 842.208 168.048C844 168.048 845.312 168.944 845.312 170.992V176H844.384L844.24 174.64C843.76 175.616 842.704 176.192 841.392 176.192ZM841.648 175.296C843.28 175.296 844.224 174.16 844.224 172.48V172.064L841.936 172.24C840.48 172.368 839.888 173.008 839.888 173.872C839.888 174.816 840.592 175.296 841.648 175.296ZM846.571 179.376V178.464H847.419C848.091 178.464 848.763 178.416 849.147 177.376L849.483 176.464L846.347 168.256H847.515L850.011 175.008L852.459 168.256H853.595L850.043 177.776C849.595 178.992 848.843 179.488 847.739 179.488C847.275 179.488 846.923 179.456 846.571 179.376ZM855.99 176H854.886V168.256H855.846L855.974 169.36C856.358 168.544 857.222 168.048 858.31 168.048C859.526 168.048 860.438 168.688 860.806 169.696C861.158 168.688 862.102 168.048 863.35 168.048C865.03 168.048 866.134 169.136 866.134 170.928V176H865.062V171.152C865.062 169.824 864.326 169.04 863.142 169.04C861.846 169.04 861.078 170.016 861.078 171.216V176H859.99V171.136C859.99 169.824 859.238 169.056 858.07 169.056C856.774 169.056 855.99 170.016 855.99 171.2V176ZM871.603 176.192C869.331 176.192 867.811 174.56 867.811 172.128C867.811 169.712 869.315 168.048 871.523 168.048C873.619 168.048 875.043 169.536 875.043 171.728V172.272H868.883C868.963 174.16 869.955 175.248 871.619 175.248C872.883 175.248 873.699 174.704 873.987 173.68H875.043C874.627 175.312 873.427 176.192 871.603 176.192ZM871.523 168.992C870.067 168.992 869.107 169.952 868.915 171.472H873.939C873.939 169.984 872.979 168.992 871.523 168.992ZM877.912 176H876.808V168.256H877.768L877.928 169.6C878.44 168.608 879.464 168.048 880.584 168.048C882.712 168.048 883.592 169.312 883.592 171.264V176H882.488V171.504C882.488 169.696 881.672 169.056 880.392 169.056C878.808 169.056 877.912 170.208 877.912 171.952V176ZM887.569 176H886.481V169.184H884.929V168.256H886.481V165.808H887.569V168.256H889.121V169.184H887.569V176ZM889.902 173.824H890.958C890.958 174.72 891.63 175.28 892.718 175.28C893.918 175.28 894.622 174.768 894.622 173.936C894.622 173.296 894.302 172.928 893.39 172.704L892.062 172.368C890.718 172.032 890.062 171.328 890.062 170.272C890.062 168.912 891.198 168.048 892.862 168.048C894.494 168.048 895.55 168.944 895.598 170.384H894.526C894.494 169.488 893.87 168.96 892.83 168.96C891.742 168.96 891.134 169.424 891.134 170.256C891.134 170.848 891.55 171.264 892.398 171.472L893.726 171.808C895.07 172.144 895.678 172.768 895.678 173.888C895.678 175.28 894.494 176.192 892.734 176.192C890.99 176.192 889.902 175.264 889.902 173.824Z" fill="black" fill-opacity="0.6"/>
<path d="M1093.91 17H1092.34V5.432H1096.71C1099.19 5.432 1100.66 6.744 1100.66 8.904C1100.66 10.504 1099.86 11.656 1098.42 12.12L1100.78 17H1099.03L1096.87 12.424H1093.91V17ZM1093.91 6.84V11.032H1096.73C1098.18 11.032 1099.02 10.248 1099.02 8.92C1099.02 7.576 1098.15 6.84 1096.71 6.84H1093.91ZM1112.87 17H1105.81V5.432H1112.87V6.872H1107.38V10.488H1112.32V11.88H1107.38V15.544H1112.87V17ZM1117.47 8.552C1117.47 6.568 1119.07 5.224 1121.45 5.224C1123.66 5.224 1125.08 6.456 1125.21 8.456H1123.63C1123.55 7.304 1122.73 6.632 1121.44 6.632C1119.98 6.632 1119.04 7.368 1119.04 8.504C1119.04 9.432 1119.56 9.992 1120.65 10.248L1122.56 10.696C1124.44 11.128 1125.4 12.152 1125.4 13.784C1125.4 15.864 1123.79 17.192 1121.32 17.192C1118.97 17.192 1117.4 15.96 1117.31 13.976H1118.91C1118.94 15.08 1119.87 15.784 1121.32 15.784C1122.86 15.784 1123.84 15.064 1123.84 13.912C1123.84 13 1123.34 12.424 1122.24 12.168L1120.33 11.736C1118.44 11.304 1117.47 10.216 1117.47 8.552ZM1140.81 11.208C1140.81 14.728 1138.5 17.192 1135.22 17.192C1131.96 17.192 1129.69 14.728 1129.69 11.208C1129.69 7.704 1131.98 5.224 1135.24 5.224C1138.52 5.224 1140.81 7.688 1140.81 11.208ZM1139.16 11.208C1139.16 8.52 1137.59 6.744 1135.24 6.744C1132.89 6.744 1131.34 8.52 1131.34 11.208C1131.34 13.896 1132.89 15.688 1135.24 15.688C1137.59 15.688 1139.16 13.88 1139.16 11.208ZM1145.73 12.888V5.432H1147.3V12.792C1147.3 14.648 1148.32 15.672 1150.16 15.672C1151.99 15.672 1153 14.632 1153 12.792V5.432H1154.58V12.888C1154.58 15.544 1152.88 17.192 1150.16 17.192C1147.43 17.192 1145.73 15.56 1145.73 12.888ZM1161.76 17H1160.19V5.432H1164.56C1167.04 5.432 1168.51 6.744 1168.51 8.904C1168.51 10.504 1167.71 11.656 1166.27 12.12L1168.62 17H1166.88L1164.72 12.424H1161.76V17ZM1161.76 6.84V11.032H1164.57C1166.03 11.032 1166.86 10.248 1166.86 8.92C1166.86 7.576 1166 6.84 1164.56 6.84H1161.76ZM1178.41 17.176C1175.11 17.176 1172.92 14.808 1172.92 11.224C1172.92 7.656 1175.18 5.24 1178.49 5.24C1181.1 5.24 1183.1 6.792 1183.53 9.16H1181.85C1181.42 7.656 1180.12 6.744 1178.44 6.744C1176.11 6.744 1174.57 8.504 1174.57 11.208C1174.57 13.912 1176.11 15.672 1178.44 15.672C1180.14 15.672 1181.48 14.76 1181.91 13.336H1183.58C1183.08 15.64 1181.02 17.176 1178.41 17.176ZM1195.56 17H1188.5V5.432H1195.56V6.872H1190.07V10.488H1195.01V11.88H1190.07V15.544H1195.56V17ZM1200.16 8.552C1200.16 6.568 1201.76 5.224 1204.14 5.224C1206.35 5.224 1207.77 6.456 1207.9 8.456H1206.32C1206.24 7.304 1205.42 6.632 1204.12 6.632C1202.67 6.632 1201.72 7.368 1201.72 8.504C1201.72 9.432 1202.25 9.992 1203.34 10.248L1205.24 10.696C1207.13 11.128 1208.09 12.152 1208.09 13.784C1208.09 15.864 1206.48 17.192 1204.01 17.192C1201.66 17.192 1200.09 15.96 1200 13.976H1201.6C1201.63 15.08 1202.56 15.784 1204.01 15.784C1205.55 15.784 1206.52 15.064 1206.52 13.912C1206.52 13 1206.03 12.424 1204.92 12.168L1203.02 11.736C1201.13 11.304 1200.16 10.216 1200.16 8.552Z" fill="black"/>
<path d="M1098.23 56.96H1093.54V62H1092.39V50.544H1099.14V51.6H1093.54V55.92H1098.23V56.96ZM1104.4 54.16V55.152H1103.8C1102.37 55.152 1101.46 56.112 1101.46 57.584V62H1100.36V54.256H1101.4L1101.48 55.456C1101.78 54.624 1102.6 54.08 1103.68 54.08C1103.92 54.08 1104.13 54.096 1104.4 54.16ZM1108.82 62.192C1106.55 62.192 1105.03 60.56 1105.03 58.128C1105.03 55.712 1106.53 54.048 1108.74 54.048C1110.84 54.048 1112.26 55.536 1112.26 57.728V58.272H1106.1C1106.18 60.16 1107.17 61.248 1108.84 61.248C1110.1 61.248 1110.92 60.704 1111.21 59.68H1112.26C1111.85 61.312 1110.65 62.192 1108.82 62.192ZM1108.74 54.992C1107.29 54.992 1106.33 55.952 1106.13 57.472H1111.16C1111.16 55.984 1110.2 54.992 1108.74 54.992ZM1117.28 62.192C1115 62.192 1113.48 60.56 1113.48 58.128C1113.48 55.712 1114.99 54.048 1117.2 54.048C1119.29 54.048 1120.72 55.536 1120.72 57.728V58.272H1114.56C1114.64 60.16 1115.63 61.248 1117.29 61.248C1118.56 61.248 1119.37 60.704 1119.66 59.68H1120.72C1120.3 61.312 1119.1 62.192 1117.28 62.192ZM1117.2 54.992C1115.74 54.992 1114.78 55.952 1114.59 57.472H1119.61C1119.61 55.984 1118.65 54.992 1117.2 54.992ZM1130.17 62.192C1127.89 62.192 1126.37 60.56 1126.37 58.128C1126.37 55.712 1127.88 54.048 1130.09 54.048C1132.18 54.048 1133.61 55.536 1133.61 57.728V58.272H1127.45C1127.53 60.16 1128.52 61.248 1130.18 61.248C1131.45 61.248 1132.26 60.704 1132.55 59.68H1133.61C1133.19 61.312 1131.99 62.192 1130.17 62.192ZM1130.09 54.992C1128.63 54.992 1127.67 55.952 1127.48 57.472H1132.5C1132.5 55.984 1131.54 54.992 1130.09 54.992ZM1135.61 62V50.544H1139.8C1142.01 50.544 1143.37 51.664 1143.37 53.504C1143.37 54.848 1142.78 55.76 1141.59 56.224C1142.92 56.656 1143.59 57.584 1143.59 58.992C1143.59 60.832 1142.22 62 1140.04 62H1135.61ZM1139.79 51.568H1136.76V55.76H1139.93C1141.37 55.76 1142.19 54.96 1142.19 53.6C1142.19 52.32 1141.32 51.568 1139.79 51.568ZM1140.04 56.768H1136.76V60.96H1140.04C1141.55 60.96 1142.43 60.176 1142.43 58.848C1142.43 57.552 1141.53 56.768 1140.04 56.768ZM1144.89 58.128C1144.89 55.76 1146.55 54.048 1148.83 54.048C1151.1 54.048 1152.76 55.76 1152.76 58.128C1152.76 60.48 1151.1 62.192 1148.83 62.192C1146.55 62.192 1144.89 60.48 1144.89 58.128ZM1146.01 58.112C1146.01 59.936 1147.16 61.2 1148.83 61.2C1150.47 61.2 1151.64 59.936 1151.64 58.112C1151.64 56.32 1150.47 55.04 1148.83 55.04C1147.16 55.04 1146.01 56.32 1146.01 58.112ZM1153.98 58.128C1153.98 55.76 1155.65 54.048 1157.92 54.048C1160.19 54.048 1161.86 55.76 1161.86 58.128C1161.86 60.48 1160.19 62.192 1157.92 62.192C1155.65 62.192 1153.98 60.48 1153.98 58.128ZM1155.1 58.112C1155.1 59.936 1156.26 61.2 1157.92 61.2C1159.57 61.2 1160.74 59.936 1160.74 58.112C1160.74 56.32 1159.57 55.04 1157.92 55.04C1156.26 55.04 1155.1 56.32 1155.1 58.112ZM1164.77 62H1163.67V50.336H1164.77V58.256L1168.61 54.256H1170L1167.03 57.344L1170.02 62H1168.74L1166.28 58.128L1164.77 59.68V62ZM1170.79 59.824H1171.85C1171.85 60.72 1172.52 61.28 1173.61 61.28C1174.81 61.28 1175.51 60.768 1175.51 59.936C1175.51 59.296 1175.19 58.928 1174.28 58.704L1172.95 58.368C1171.61 58.032 1170.95 57.328 1170.95 56.272C1170.95 54.912 1172.09 54.048 1173.75 54.048C1175.38 54.048 1176.44 54.944 1176.49 56.384H1175.42C1175.38 55.488 1174.76 54.96 1173.72 54.96C1172.63 54.96 1172.02 55.424 1172.02 56.256C1172.02 56.848 1172.44 57.264 1173.29 57.472L1174.62 57.808C1175.96 58.144 1176.57 58.768 1176.57 59.888C1176.57 61.28 1175.38 62.192 1173.62 62.192C1171.88 62.192 1170.79 61.264 1170.79 59.824ZM1095.88 100H1092.39V88.544H1095.85C1099.3 88.544 1101.61 90.848 1101.61 94.272C1101.61 97.696 1099.32 100 1095.88 100ZM1095.8 89.6H1093.54V98.944H1095.83C1098.63 98.944 1100.42 97.12 1100.42 94.272C1100.42 91.408 1098.63 89.6 1095.8 89.6ZM1106.7 100.192C1104.42 100.192 1102.9 98.56 1102.9 96.128C1102.9 93.712 1104.41 92.048 1106.62 92.048C1108.71 92.048 1110.14 93.536 1110.14 95.728V96.272H1103.98C1104.06 98.16 1105.05 99.248 1106.71 99.248C1107.98 99.248 1108.79 98.704 1109.08 97.68H1110.14C1109.72 99.312 1108.52 100.192 1106.7 100.192ZM1106.62 92.992C1105.16 92.992 1104.2 93.952 1104.01 95.472H1109.03C1109.03 93.984 1108.07 92.992 1106.62 92.992ZM1113.86 100L1110.69 92.256H1111.87L1113.87 97.248C1114.08 97.808 1114.29 98.336 1114.43 98.848C1114.58 98.32 1114.79 97.808 1115.01 97.248L1117.04 92.256H1118.18L1114.96 100H1113.86ZM1122.38 100.192C1120.11 100.192 1118.59 98.56 1118.59 96.128C1118.59 93.712 1120.1 92.048 1122.3 92.048C1124.4 92.048 1125.82 93.536 1125.82 95.728V96.272H1119.66C1119.74 98.16 1120.74 99.248 1122.4 99.248C1123.66 99.248 1124.48 98.704 1124.77 97.68H1125.82C1125.41 99.312 1124.21 100.192 1122.38 100.192ZM1122.3 92.992C1120.85 92.992 1119.89 93.952 1119.7 95.472H1124.72C1124.72 93.984 1123.76 92.992 1122.3 92.992ZM1128.74 100H1127.64V88.336H1128.74V100ZM1130.55 96.128C1130.55 93.76 1132.21 92.048 1134.48 92.048C1136.75 92.048 1138.42 93.76 1138.42 96.128C1138.42 98.48 1136.75 100.192 1134.48 100.192C1132.21 100.192 1130.55 98.48 1130.55 96.128ZM1131.67 96.112C1131.67 97.936 1132.82 99.2 1134.48 99.2C1136.13 99.2 1137.3 97.936 1137.3 96.112C1137.3 94.32 1136.13 93.04 1134.48 93.04C1132.82 93.04 1131.67 94.32 1131.67 96.112ZM1140.18 103.376V92.256H1141.14L1141.26 93.824C1141.8 92.624 1142.89 92.048 1144.18 92.048C1146.42 92.048 1147.77 93.76 1147.77 96.096C1147.77 98.432 1146.47 100.192 1144.18 100.192C1142.87 100.192 1141.83 99.632 1141.29 98.512V103.376H1140.18ZM1141.3 96.128C1141.3 97.904 1142.3 99.2 1143.99 99.2C1145.67 99.2 1146.65 97.904 1146.65 96.128C1146.65 94.336 1145.67 93.056 1143.99 93.056C1142.3 93.056 1141.3 94.336 1141.3 96.128ZM1150.63 100H1149.53V92.256H1150.49L1150.62 93.36C1151 92.544 1151.86 92.048 1152.95 92.048C1154.17 92.048 1155.08 92.688 1155.45 93.696C1155.8 92.688 1156.74 92.048 1157.99 92.048C1159.67 92.048 1160.78 93.136 1160.78 94.928V100H1159.7V95.152C1159.7 93.824 1158.97 93.04 1157.78 93.04C1156.49 93.04 1155.72 94.016 1155.72 95.216V100H1154.63V95.136C1154.63 93.824 1153.88 93.056 1152.71 93.056C1151.42 93.056 1150.63 94.016 1150.63 95.2V100ZM1166.24 100.192C1163.97 100.192 1162.45 98.56 1162.45 96.128C1162.45 93.712 1163.96 92.048 1166.16 92.048C1168.26 92.048 1169.68 93.536 1169.68 95.728V96.272H1163.52C1163.6 98.16 1164.6 99.248 1166.26 99.248C1167.52 99.248 1168.34 98.704 1168.63 97.68H1169.68C1169.27 99.312 1168.07 100.192 1166.24 100.192ZM1166.16 92.992C1164.71 92.992 1163.75 93.952 1163.56 95.472H1168.58C1168.58 93.984 1167.62 92.992 1166.16 92.992ZM1172.55 100H1171.45V92.256H1172.41L1172.57 93.6C1173.08 92.608 1174.1 92.048 1175.22 92.048C1177.35 92.048 1178.23 93.312 1178.23 95.264V100H1177.13V95.504C1177.13 93.696 1176.31 93.056 1175.03 93.056C1173.45 93.056 1172.55 94.208 1172.55 95.952V100ZM1182.21 100H1181.12V93.184H1179.57V92.256H1181.12V89.808H1182.21V92.256H1183.76V93.184H1182.21V100ZM1188.68 89.6V88.544H1196.88V89.6H1193.35V100H1192.2V89.6H1188.68ZM1202.72 92.256H1203.82V100H1202.86L1202.72 98.688C1202.29 99.584 1201.21 100.192 1200 100.192C1198.17 100.192 1197.18 98.944 1197.18 97.056V92.24H1198.3V96.704C1198.3 98.544 1199.12 99.2 1200.35 99.2C1201.84 99.2 1202.72 98.208 1202.72 96.368V92.256ZM1207.9 100H1206.81V93.184H1205.26V92.256H1206.81V89.808H1207.9V92.256H1209.45V93.184H1207.9V100ZM1210.26 96.128C1210.26 93.76 1211.93 92.048 1214.2 92.048C1216.47 92.048 1218.14 93.76 1218.14 96.128C1218.14 98.48 1216.47 100.192 1214.2 100.192C1211.93 100.192 1210.26 98.48 1210.26 96.128ZM1211.38 96.112C1211.38 97.936 1212.54 99.2 1214.2 99.2C1215.85 99.2 1217.02 97.936 1217.02 96.112C1217.02 94.32 1215.85 93.04 1214.2 93.04C1212.54 93.04 1211.38 94.32 1211.38 96.112ZM1223.95 92.16V93.152H1223.34C1221.92 93.152 1221.01 94.112 1221.01 95.584V100H1219.9V92.256H1220.94L1221.02 93.456C1221.33 92.624 1222.14 92.08 1223.23 92.08C1223.47 92.08 1223.68 92.096 1223.95 92.16ZM1225.96 90.128C1225.51 90.128 1225.15 89.76 1225.15 89.312C1225.15 88.864 1225.51 88.48 1225.96 88.48C1226.41 88.48 1226.79 88.864 1226.79 89.312C1226.79 89.76 1226.41 90.128 1225.96 90.128ZM1225.42 100V92.256H1226.52V100H1225.42ZM1231.05 100.192C1229.4 100.192 1228.42 99.264 1228.42 97.904C1228.42 96.48 1229.51 95.584 1231.32 95.44L1233.88 95.232V94.976C1233.88 93.456 1232.97 92.976 1231.83 92.976C1230.49 92.976 1229.69 93.584 1229.69 94.624H1228.68C1228.68 93.056 1229.96 92.048 1231.86 92.048C1233.66 92.048 1234.97 92.944 1234.97 94.992V100H1234.04L1233.9 98.64C1233.42 99.616 1232.36 100.192 1231.05 100.192ZM1231.3 99.296C1232.94 99.296 1233.88 98.16 1233.88 96.48V96.064L1231.59 96.24C1230.14 96.368 1229.54 97.008 1229.54 97.872C1229.54 98.816 1230.25 99.296 1231.3 99.296ZM1238.34 100H1237.23V88.336H1238.34V100ZM1093.54 138H1092.39V126.544H1093.54V131.648H1099.74V126.544H1100.87V138H1099.74V132.72H1093.54V138ZM1102.89 134.128C1102.89 131.76 1104.55 130.048 1106.83 130.048C1109.1 130.048 1110.76 131.76 1110.76 134.128C1110.76 136.48 1109.1 138.192 1106.83 138.192C1104.55 138.192 1102.89 136.48 1102.89 134.128ZM1104.01 134.112C1104.01 135.936 1105.16 137.2 1106.83 137.2C1108.47 137.2 1109.64 135.936 1109.64 134.112C1109.64 132.32 1108.47 131.04 1106.83 131.04C1105.16 131.04 1104.01 132.32 1104.01 134.112ZM1113.82 138L1111.26 130.256H1112.39L1113.91 134.928C1114.09 135.44 1114.23 135.968 1114.39 136.592C1114.52 135.968 1114.78 135.184 1114.86 134.928L1116.39 130.256H1117.53L1119.05 134.928C1119.19 135.344 1119.38 136.016 1119.53 136.592C1119.69 135.952 1119.72 135.76 1119.99 134.928L1121.53 130.256H1122.68L1120.06 138H1118.98L1117.38 133.136C1117.19 132.56 1117.06 132.08 1116.97 131.616C1116.86 132.032 1116.73 132.496 1116.52 133.136L1114.92 138H1113.82ZM1130.27 138H1129.18V131.184H1127.63V130.256H1129.18V127.808H1130.27V130.256H1131.82V131.184H1130.27V138ZM1132.64 134.128C1132.64 131.76 1134.3 130.048 1136.58 130.048C1138.85 130.048 1140.51 131.76 1140.51 134.128C1140.51 136.48 1138.85 138.192 1136.58 138.192C1134.3 138.192 1132.64 136.48 1132.64 134.128ZM1133.76 134.112C1133.76 135.936 1134.91 137.2 1136.58 137.2C1138.22 137.2 1139.39 135.936 1139.39 134.112C1139.39 132.32 1138.22 131.04 1136.58 131.04C1134.91 131.04 1133.76 132.32 1133.76 134.112ZM1146.59 134.288V133.296H1151.23V134.288H1146.59ZM1158.08 138V126.544H1162.27C1164.48 126.544 1165.84 127.664 1165.84 129.504C1165.84 130.848 1165.25 131.76 1164.06 132.224C1165.39 132.656 1166.06 133.584 1166.06 134.992C1166.06 136.832 1164.69 138 1162.51 138H1158.08ZM1162.26 127.568H1159.23V131.76H1162.4C1163.84 131.76 1164.66 130.96 1164.66 129.6C1164.66 128.32 1163.79 127.568 1162.26 127.568ZM1162.51 132.768H1159.23V136.96H1162.51C1164.02 136.96 1164.9 136.176 1164.9 134.848C1164.9 133.552 1164 132.768 1162.51 132.768ZM1169.05 138H1167.95V126.336H1169.05V138ZM1170.86 134.128C1170.86 131.76 1172.52 130.048 1174.79 130.048C1177.07 130.048 1178.73 131.76 1178.73 134.128C1178.73 136.48 1177.07 138.192 1174.79 138.192C1172.52 138.192 1170.86 136.48 1170.86 134.128ZM1171.98 134.112C1171.98 135.936 1173.13 137.2 1174.79 137.2C1176.44 137.2 1177.61 135.936 1177.61 134.112C1177.61 132.32 1176.44 131.04 1174.79 131.04C1173.13 131.04 1171.98 132.32 1171.98 134.112ZM1179.97 133.904C1179.97 131.792 1181.33 130.048 1183.6 130.048C1184.94 130.048 1185.97 130.672 1186.46 131.808L1186.58 130.256H1187.54V137.76C1187.54 140.064 1186.06 141.568 1183.79 141.568C1181.81 141.568 1180.42 140.448 1180.11 138.576H1181.22C1181.46 139.824 1182.42 140.56 1183.81 140.56C1185.39 140.56 1186.45 139.488 1186.45 137.872V136.032C1185.92 137.12 1184.85 137.76 1183.52 137.76C1181.31 137.76 1179.97 136.016 1179.97 133.904ZM1181.07 133.888C1181.07 135.472 1182.05 136.768 1183.68 136.768C1185.36 136.768 1186.35 135.552 1186.35 133.888C1186.35 132.24 1185.39 131.024 1183.7 131.024C1182.03 131.024 1181.07 132.32 1181.07 133.888ZM1095.05 171.216L1091.16 164.544H1092.46L1095.29 169.488C1095.42 169.728 1095.51 169.92 1095.62 170.176C1095.77 169.888 1095.77 169.888 1095.98 169.488L1098.78 164.544H1100.04L1096.2 171.216V176H1095.05V171.216ZM1099.31 172.128C1099.31 169.76 1100.98 168.048 1103.25 168.048C1105.52 168.048 1107.18 169.76 1107.18 172.128C1107.18 174.48 1105.52 176.192 1103.25 176.192C1100.98 176.192 1099.31 174.48 1099.31 172.128ZM1100.43 172.112C1100.43 173.936 1101.58 175.2 1103.25 175.2C1104.9 175.2 1106.06 173.936 1106.06 172.112C1106.06 170.32 1104.9 169.04 1103.25 169.04C1101.58 169.04 1100.43 170.32 1100.43 172.112ZM1114.2 168.256H1115.31V176H1114.35L1114.2 174.688C1113.77 175.584 1112.7 176.192 1111.48 176.192C1109.66 176.192 1108.67 174.944 1108.67 173.056V168.24H1109.79V172.704C1109.79 174.544 1110.6 175.2 1111.83 175.2C1113.32 175.2 1114.2 174.208 1114.2 172.368V168.256ZM1119.38 176H1118.29V169.184H1116.74V168.256H1118.29V165.808H1119.38V168.256H1120.93V169.184H1119.38V176ZM1127.81 168.256H1128.91V176H1127.95L1127.81 174.688C1127.38 175.584 1126.31 176.192 1125.09 176.192C1123.27 176.192 1122.27 174.944 1122.27 173.056V168.24H1123.39V172.704C1123.39 174.544 1124.21 175.2 1125.44 175.2C1126.93 175.2 1127.81 174.208 1127.81 172.368V168.256ZM1132.17 176H1131.21V164.336H1132.32V169.76C1132.86 168.624 1133.92 168.048 1135.23 168.048C1137.49 168.048 1138.8 169.808 1138.8 172.144C1138.8 174.464 1137.45 176.192 1135.2 176.192C1133.9 176.192 1132.83 175.616 1132.29 174.416L1132.17 176ZM1132.33 172.112C1132.33 173.904 1133.33 175.184 1135.02 175.184C1136.7 175.184 1137.68 173.904 1137.68 172.112C1137.68 170.336 1136.7 169.04 1135.02 169.04C1133.33 169.04 1132.33 170.336 1132.33 172.112ZM1143.81 176.192C1141.53 176.192 1140.01 174.56 1140.01 172.128C1140.01 169.712 1141.52 168.048 1143.73 168.048C1145.82 168.048 1147.25 169.536 1147.25 171.728V172.272H1141.09C1141.17 174.16 1142.16 175.248 1143.82 175.248C1145.09 175.248 1145.9 174.704 1146.19 173.68H1147.25C1146.83 175.312 1145.63 176.192 1143.81 176.192ZM1143.73 168.992C1142.27 168.992 1141.31 169.952 1141.12 171.472H1146.14C1146.14 169.984 1145.18 168.992 1143.73 168.992ZM1158.06 171.792H1154.84V176H1153.69V164.544H1158.06C1160.26 164.544 1161.66 165.984 1161.66 168.144C1161.66 170.224 1160.25 171.792 1158.06 171.792ZM1157.9 165.584H1154.84V170.752H1157.83C1159.5 170.752 1160.46 169.696 1160.46 168.128C1160.46 166.544 1159.48 165.584 1157.9 165.584ZM1164.43 176H1163.33V164.336H1164.43V176ZM1169 176.192C1167.35 176.192 1166.38 175.264 1166.38 173.904C1166.38 172.48 1167.47 171.584 1169.27 171.44L1171.83 171.232V170.976C1171.83 169.456 1170.92 168.976 1169.79 168.976C1168.44 168.976 1167.64 169.584 1167.64 170.624H1166.63C1166.63 169.056 1167.91 168.048 1169.82 168.048C1171.61 168.048 1172.92 168.944 1172.92 170.992V176H1171.99L1171.85 174.64C1171.37 175.616 1170.31 176.192 1169 176.192ZM1169.26 175.296C1170.89 175.296 1171.83 174.16 1171.83 172.48V172.064L1169.55 172.24C1168.09 172.368 1167.5 173.008 1167.5 173.872C1167.5 174.816 1168.2 175.296 1169.26 175.296ZM1174.18 179.376V178.464H1175.03C1175.7 178.464 1176.37 178.416 1176.76 177.376L1177.09 176.464L1173.96 168.256H1175.12L1177.62 175.008L1180.07 168.256H1181.2L1177.65 177.776C1177.2 178.992 1176.45 179.488 1175.35 179.488C1174.88 179.488 1174.53 179.456 1174.18 179.376ZM1183.65 176H1182.54V164.336H1183.65V176ZM1186.54 166.128C1186.09 166.128 1185.72 165.76 1185.72 165.312C1185.72 164.864 1186.09 164.48 1186.54 164.48C1186.99 164.48 1187.37 164.864 1187.37 165.312C1187.37 165.76 1186.99 166.128 1186.54 166.128ZM1186 176V168.256H1187.1V176H1186ZM1188.75 173.824H1189.8C1189.8 174.72 1190.47 175.28 1191.56 175.28C1192.76 175.28 1193.47 174.768 1193.47 173.936C1193.47 173.296 1193.15 172.928 1192.23 172.704L1190.91 172.368C1189.56 172.032 1188.91 171.328 1188.91 170.272C1188.91 168.912 1190.04 168.048 1191.71 168.048C1193.34 168.048 1194.39 168.944 1194.44 170.384H1193.37C1193.34 169.488 1192.71 168.96 1191.67 168.96C1190.59 168.96 1189.98 169.424 1189.98 170.256C1189.98 170.848 1190.39 171.264 1191.24 171.472L1192.57 171.808C1193.91 172.144 1194.52 172.768 1194.52 173.888C1194.52 175.28 1193.34 176.192 1191.58 176.192C1189.83 176.192 1188.75 175.264 1188.75 173.824ZM1198.12 176H1197.03V169.184H1195.48V168.256H1197.03V165.808H1198.12V168.256H1199.67V169.184H1198.12V176Z" fill="black" fill-opacity="0.6"/>
</svg>
